<?xml version="1.0" encoding="utf-8"?>
<!-- Generator: Adobe Illustrator 16.0.0, SVG Export Plug-In . SVG Version: 6.00 Build 0)  -->
<!DOCTYPE svg PUBLIC "-//W3C//DTD SVG 1.1//EN" "http://www.w3.org/Graphics/SVG/1.1/DTD/svg11.dtd">
<svg version="1.1" id="Layer_1" xmlns="http://www.w3.org/2000/svg" xmlns:xlink="http://www.w3.org/1999/xlink" x="0px" y="0px"
	 width="1000px" height="1000px" viewBox="0 0 1000 1000" enable-background="new 0 0 1000 1000" xml:space="preserve">
<g>
	<path fill-rule="evenodd" clip-rule="evenodd" fill="#FFFFFF" d="M2,1002C2,668.667,2,335.333,2,2c333.333,0,666.667,0,1000,0
		c0,333.333,0,666.667,0,1000C668.667,1002,335.333,1002,2,1002z M655.211,698.907c0.048-70.785-57.658-129.874-126.957-129.998
		c-71.429-0.129-131.27,57.703-131.334,126.926c-0.068,72.604,57.457,131.233,128.842,131.315
		C597.123,827.232,655.164,769.732,655.211,698.907z M343.957,699.698c0.789-2.206,1.193-2.813,1.197-3.424
		c0.293-36.987,11.527-70.441,31.838-101.202c1.498-2.269,0.338-8.794-1.841-10.558c-9.751-7.896-20.247-14.886-30.616-21.997
		c-7.858-5.39-14.427-4.355-22.287,1.969c-29.576,23.793-60.798,23.303-89.733-0.941c-5.986-5.016-11.053-6.109-17.922-2.808
		c-37.73,18.133-58.959,47.711-61.579,89.679c-1.721,27.566,19.36,49.175,47.163,49.254c36.612,0.104,73.227,0.027,109.84,0.028
		C321.287,699.699,332.559,699.698,343.957,699.698z M710.187,698.987c0.745,0.163,1.703,0.559,2.661,0.559
		c48.281-0.002,96.566,0.358,144.841-0.246c22.109-0.277,41.021-20.802,41.765-43.216c1.379-41.513-24.399-80.544-63.911-95.676
		c-3.759-1.439-10.128-0.569-13.365,1.825c-35.784,26.462-61.435,26.461-95.779-0.103c-2.985-2.31-8.808-3.329-12.356-2.126
		c-16.713,5.665-30.395,15.942-40.169,28.231c8.651,18.64,18.395,35.474,24.314,53.559
		C704.112,659.898,706.219,679.251,710.187,698.987z M774.185,380.337c-32.106-0.011-59.4,22.478-65.188,53.763
		c-2.103,11.369-4.511,22.703-6.039,34.151c-1.765,13.221-0.059,25.793,8.785,36.745c5.39,6.673,9.799,14.135,15.155,20.838
		c6.197,7.754,12.104,16.078,19.635,22.357c16.912,14.102,37.947,14.746,54.845,0.772c9.245-7.646,15.98-18.37,23.638-27.875
		c3.296-4.091,5.561-9.088,9.159-12.846c10.212-10.665,13.919-23.242,11.837-37.53c-1.622-11.13-4.204-22.118-5.888-33.24
		C834.943,403.252,808.639,380.349,774.185,380.337z M277.656,380.334c-30.988,0.062-57.621,21.047-64.243,51.094
		c-2.701,12.256-4.98,24.643-6.636,37.078c-1.51,11.35-0.935,22.734,5.914,32.654c7.711,11.169,15.443,22.342,23.688,33.113
		c4.006,5.233,8.756,10.124,13.939,14.186c17.298,13.552,38.11,14.413,54.907,0.351c9.435-7.899,16.211-19.004,24.028-28.79
		c2.665-3.336,4.325-7.604,7.346-10.507c14.487-13.924,15.625-30.643,11.226-48.837c-1.556-6.434-3.144-12.947-3.729-19.513
		C340.893,405.284,313.723,380.263,277.656,380.334z M525.269,264.575c-30.38-0.226-56.423,20.628-62.927,50.704
		c-2.722,12.584-5.405,25.219-7.146,37.962c-1.608,11.776,0.165,23.139,7.727,33.099c5.995,7.898,11.796,15.974,17.196,24.286
		c9.76,15.023,21.685,27.677,40.169,30.153c22.452,3.008,37.85-9.361,49.97-26.637c4.94-7.044,8.442-15.281,14.158-21.554
		c9.089-9.973,14.287-21.019,12.84-34.329c-1.175-10.813-5.63-21.506-5.426-32.19C592.45,293.755,560.752,262.687,525.269,264.575z
		 M408.06,558.452c79.195-56.7,157.849-56.586,238.674,1.328c1.601-10.416,4.826-19.5,4.023-28.214
		c-3.802-41.268-24.862-70.818-63.247-87.105c-3.578-1.518-10.229-0.688-13.101,1.783c-29.845,25.69-67.521,25.24-96.005-0.566
		c-4.459-4.039-8.264-4.004-13.417-1.775c-33.707,14.578-54.579,39.888-61.424,75.721
		C401.155,532.228,399.838,545.972,408.06,558.452z"/>
	<path fill-rule="evenodd" clip-rule="evenodd" fill="#1C75BC" d="M655.211,698.907c-0.047,70.825-58.088,128.325-129.449,128.243
		c-71.385-0.082-128.91-58.712-128.842-131.315c0.064-69.223,59.905-127.055,131.334-126.926
		C597.553,569.033,655.259,628.122,655.211,698.907z M507.966,700.123c-6.8-7.557-13.474-14.913-20.078-22.331
		c-6.254-7.022-12.181-6.711-18.489,0.142c-5.404,5.87-11.25,11.337-16.971,16.911c-5.037,4.907-5.039,9.868-0.168,14.752
		c16.688,16.728,33.461,33.369,50.151,50.094c5.032,5.042,9.668,4.728,14.61-0.229c29.607-29.693,59.249-59.353,88.975-88.928
		c5.298-5.271,5.609-10.125,0.207-15.382c-5.008-4.873-9.892-9.874-14.844-14.806c-10.09-10.048-12.676-9.911-22.785,0.119
		C549.222,659.667,529.725,678.724,507.966,700.123z"/>
	<path fill-rule="evenodd" clip-rule="evenodd" fill="#F15A29" d="M343.957,699.698c-11.398,0-22.67,0.001-33.94,0
		c-36.613-0.001-73.228,0.075-109.84-0.028c-27.803-0.079-48.884-21.688-47.163-49.254c2.62-41.968,23.849-71.546,61.579-89.679
		c6.869-3.302,11.936-2.208,17.922,2.808c28.936,24.244,60.157,24.734,89.733,0.941c7.86-6.324,14.429-7.358,22.287-1.969
		c10.369,7.111,20.865,14.102,30.616,21.997c2.179,1.764,3.339,8.289,1.841,10.558c-20.311,30.761-31.545,64.215-31.838,101.202
		C345.15,696.885,344.746,697.492,343.957,699.698z"/>
	<path fill-rule="evenodd" clip-rule="evenodd" fill="#F15A29" d="M710.187,698.987c-3.968-19.736-6.074-39.089-12-57.192
		c-5.92-18.085-15.663-34.919-24.314-53.559c9.774-12.289,23.456-22.566,40.169-28.231c3.549-1.203,9.371-0.184,12.356,2.126
		c34.345,26.563,59.995,26.564,95.779,0.103c3.237-2.395,9.606-3.265,13.365-1.825c39.512,15.132,65.29,54.163,63.911,95.676
		c-0.744,22.414-19.655,42.938-41.765,43.216c-48.274,0.604-96.56,0.244-144.841,0.246
		C711.89,699.546,710.932,699.15,710.187,698.987z"/>
	<path fill-rule="evenodd" clip-rule="evenodd" fill="#F15A29" d="M774.185,380.337c34.454,0.012,60.759,22.915,65.939,57.136
		c1.684,11.122,4.266,22.11,5.888,33.24c2.082,14.288-1.625,26.865-11.837,37.53c-3.599,3.758-5.863,8.755-9.159,12.846
		c-7.657,9.505-14.393,20.229-23.638,27.875c-16.897,13.974-37.933,13.329-54.845-0.772c-7.531-6.279-13.438-14.604-19.635-22.357
		c-5.356-6.703-9.766-14.165-15.155-20.838c-8.844-10.952-10.55-23.524-8.785-36.745c1.528-11.448,3.937-22.782,6.039-34.151
		C714.784,402.814,742.078,380.326,774.185,380.337z"/>
	<path fill-rule="evenodd" clip-rule="evenodd" fill="#F15A29" d="M277.656,380.334c36.066-0.071,63.236,24.95,66.44,60.829
		c0.586,6.565,2.174,13.079,3.729,19.513c4.399,18.194,3.262,34.913-11.226,48.837c-3.021,2.903-4.681,7.171-7.346,10.507
		c-7.817,9.786-14.594,20.891-24.028,28.79c-16.797,14.063-37.609,13.201-54.907-0.351c-5.184-4.062-9.934-8.952-13.939-14.186
		c-8.245-10.771-15.978-21.944-23.688-33.113c-6.849-9.92-7.424-21.305-5.914-32.654c1.655-12.436,3.935-24.822,6.636-37.078
		C220.035,401.381,246.668,380.396,277.656,380.334z"/>
	<path fill-rule="evenodd" clip-rule="evenodd" fill="#1C75BC" d="M525.269,264.575c35.483-1.889,67.182,29.18,66.562,61.494
		c-0.204,10.685,4.251,21.377,5.426,32.19c1.447,13.311-3.751,24.356-12.84,34.329c-5.716,6.272-9.218,14.51-14.158,21.554
		c-12.12,17.275-27.518,29.645-49.97,26.637c-18.484-2.477-30.409-15.13-40.169-30.153c-5.4-8.313-11.201-16.388-17.196-24.286
		c-7.562-9.96-9.335-21.322-7.727-33.099c1.74-12.743,4.424-25.378,7.146-37.962C468.846,285.203,494.889,264.35,525.269,264.575z"
		/>
	<path fill-rule="evenodd" clip-rule="evenodd" fill="#1C75BC" d="M408.06,558.452c-8.222-12.48-6.904-26.225-4.496-38.829
		c6.845-35.833,27.717-61.143,61.424-75.721c5.153-2.229,8.958-2.264,13.417,1.775c28.484,25.807,66.16,26.257,96.005,0.566
		c2.871-2.472,9.522-3.301,13.101-1.783c38.385,16.287,59.445,45.838,63.247,87.105c0.803,8.714-2.423,17.798-4.023,28.214
		C565.908,501.866,487.255,501.752,408.06,558.452z"/>
	<path fill-rule="evenodd" clip-rule="evenodd" fill="#FFFFFF" d="M507.966,700.123c21.759-21.399,41.256-40.456,60.608-59.658
		c10.109-10.03,12.695-10.167,22.785-0.119c4.952,4.932,9.836,9.933,14.844,14.806c5.402,5.257,5.091,10.111-0.207,15.382
		c-29.726,29.575-59.367,59.234-88.975,88.928c-4.942,4.957-9.578,5.271-14.61,0.229c-16.69-16.725-33.464-33.366-50.151-50.094
		c-4.871-4.884-4.869-9.845,0.168-14.752c5.721-5.574,11.566-11.041,16.971-16.911c6.309-6.853,12.235-7.164,18.489-0.142
		C494.492,685.21,501.166,692.566,507.966,700.123z"/>
</g>
</svg>
