<?xml version="1.0" encoding="utf-8"?>
<!-- Generator: Adobe Illustrator 16.0.0, SVG Export Plug-In . SVG Version: 6.00 Build 0)  -->
<!DOCTYPE svg PUBLIC "-//W3C//DTD SVG 1.1//EN" "http://www.w3.org/Graphics/SVG/1.1/DTD/svg11.dtd">
<svg version="1.1" id="Layer_1" xmlns="http://www.w3.org/2000/svg" xmlns:xlink="http://www.w3.org/1999/xlink" x="0px" y="0px"
	 width="1000px" height="1000px" viewBox="0 0 1000 1000" enable-background="new 0 0 1000 1000" xml:space="preserve">
<path fill-rule="evenodd" clip-rule="evenodd" fill="#FFFFFF" stroke="#2A50A3" stroke-width="12" stroke-miterlimit="10" d="
	M446.326,241.972c4.378,0.207,7.993,0.526,11.606,0.528c60.475,0.031,120.956-0.398,181.426,0.197
	c31.054,0.306,61.986,3.464,91.359,14.645c60.844,23.158,98.058,68.285,111.851,130.415c15.334,69.064-3.385,130.839-53.372,181.208
	c-30.707,30.939-69.414,47.393-113.296,47.531c-163.857,0.516-327.717,0.264-491.577,0.281c-1.982,0.002-3.964-0.246-6.655-0.426
	c0-183.741,0-367.264,0-551.648c2.807-0.194,5.57-0.545,8.334-0.551c22.174-0.046,44.358,0.346,66.518-0.219
	c8.289-0.21,10.333,2.842,10.205,10.451c-0.354,21.017-0.118,42.042-0.118,63.065c0,126.997-0.001,253.994,0.002,380.992
	c0,12.291,0.016,12.299,12.077,12.299c124.983,0.002,249.966,0.146,374.947-0.205c13.661-0.039,27.6-1.689,40.913-4.754
	c36.065-8.305,62.381-39.026,67.159-75.768c2.216-17.047,1.917-33.796-2.855-50.317c-11.213-38.816-42.068-64.069-83.479-68.025
	c-12.276-1.173-24.65-1.799-36.981-1.82c-87.833-0.151-175.666-0.078-263.5-0.085c-12.313,0-12.491-0.025-12.305-12.322
	c0.453-29.91-0.005-59.888,1.911-89.71c2.74-42.649,12.262-83.439,45.228-114.11c31.384-29.199,68.892-46.15,111.831-47.522
	c54.636-1.744,109.343-1.304,164.015-2.105c7.272-0.106,10.248,1.604,10.083,9.52c-0.47,22.741-0.439,45.503-0.013,68.245
	c0.146,7.756-2.735,9.848-10.066,9.827c-50.105-0.147-100.214,0.254-150.319,0.058c-51.651-0.203-73.048,31.875-81.497,69.03
	C448.245,227.315,447.563,234.143,446.326,241.972z"/>
<path fill-rule="evenodd" clip-rule="evenodd" fill="#FFFFFF" stroke="#D76327" stroke-width="12" stroke-miterlimit="10" d="
	M479.048,731.49c0.281-4.453,0.496-7.861,0.744-11.834c17.368,0,34.464,0,52.329,0c0.172,3.475,0.455,6.547,0.457,9.617
	c0.027,50.092-0.174,100.186,0.207,150.273c0.066,8.506-2.628,10.803-10.771,10.436c-13.743-0.619-27.532-0.17-41.736-0.17
	c-0.557-4.014-1.008-7.271-1.245-8.979c-12.276,4.172-24.231,10.102-36.822,12.186c-48.501,8.02-81.015-25.086-91.149-58.727
	c-11.542-38.313-0.405-79.406,27.379-102.148C403.545,711.602,446.817,705.809,479.048,731.49z M440.234,841.982
	c21.731,0.105,37.61-15.463,37.808-37.068c0.199-21.76-15.428-37.957-36.812-38.152c-21.415-0.195-37.899,15.785-38.197,37.035
	C402.739,824.828,419.352,841.881,440.234,841.982z"/>
<path fill-rule="evenodd" clip-rule="evenodd" fill="#FFFFFF" stroke="#D76327" stroke-width="12" stroke-miterlimit="10" d="
	M703.133,823.752c5.299,14.643,17.768,22.686,34.349,23.238c16.76,0.559,32.487-3.178,47.136-11.381
	c2.243-1.256,4.514-2.463,8.158-4.447c7.353,12.68,14.585,25.156,22.049,38.025c-14.006,11.129-29.124,17.564-45.596,21.117
	c-21.091,4.549-42.292,5.1-63.135-0.648c-31.626-8.719-51.186-29.891-59.044-61.424c-7.52-30.176-2.726-58.318,17.508-82.656
	c21.128-25.414,49.352-33.422,81.157-30.816c23.557,1.932,43.938,11.154,59.438,29.455c18.18,21.461,19.586,47.07,17.147,73.424
	c-0.597,6.432-5.676,6.123-10.414,6.119c-32.827-0.023-65.657-0.01-98.484-0.006C710.272,823.752,707.145,823.752,703.133,823.752z
	 M702.824,782.271c21.929,0,43.228,0,64.704,0c-3.364-14.543-19.659-22.801-33.925-22.152
	C718.53,760.805,707.046,768.59,702.824,782.271z"/>
<path fill-rule="evenodd" clip-rule="evenodd" fill="#FFFFFF" stroke="#D76327" stroke-width="12" stroke-miterlimit="10" d="
	M205.471,828.113c13.552,6.299,25.365,12.725,37.871,17.221c6.451,2.318,14.231,2.047,21.224,1.27
	c3.311-0.371,7.564-4.182,8.719-7.395c0.659-1.834-3.479-7.037-6.46-8.242c-12.479-5.043-25.431-8.898-38.032-13.658
	c-15.64-5.906-29.211-15.053-34-31.854c-8.245-28.93,1.513-55.533,35.105-66.604c31.925-10.52,62.884-6.686,91.327,12.514
	c5.035,3.398,6.405,6.252,2.536,11.66c-6.994,9.775-13.334,20.023-20.306,30.617c-3.589-1.879-6.627-3.344-9.549-5.018
	c-10.983-6.291-22.667-10.17-35.384-8.398c-3.363,0.471-6.329,3.791-9.476,5.803c2.221,3.275,3.734,8.256,6.79,9.527
	c11.625,4.838,23.767,8.428,35.676,12.598c3.245,1.139,6.408,2.553,9.512,4.043c18.418,8.842,30.801,22.098,30.951,43.762
	c0.154,22.277-10.455,38.318-29.591,48.959c-33.171,18.447-90.037,10.33-116.767-16.711c-1.467-1.484-2.949-5.08-2.188-6.307
	C190.801,850.02,198.65,838.432,205.471,828.113z"/>
<path fill-rule="evenodd" clip-rule="evenodd" fill="#FFFFFF" stroke="#D76327" stroke-width="12" stroke-miterlimit="10" d="
	M620.63,772.545c0.002,35.68-0.172,71.357,0.143,107.035c0.068,7.621-1.766,10.846-10.07,10.412
	c-12.912-0.68-25.888-0.336-38.833-0.111c-5.2,0.09-7.865-1.051-7.853-7.09c0.151-73.943,0.135-147.889,0.027-221.836
	c-0.009-5.342,2.292-7.135,7.22-7.105c13.522,0.076,27.051,0.225,40.566-0.09c6.763-0.158,8.955,2.479,8.912,9.164
	C620.504,699.463,620.629,736.004,620.63,772.545z"/>
</svg>
