<?xml version="1.0" encoding="utf-8"?>
<!-- Generator: Adobe Illustrator 16.0.0, SVG Export Plug-In . SVG Version: 6.00 Build 0)  -->
<!DOCTYPE svg PUBLIC "-//W3C//DTD SVG 1.1//EN" "http://www.w3.org/Graphics/SVG/1.1/DTD/svg11.dtd">
<svg version="1.1" id="Layer_1" xmlns="http://www.w3.org/2000/svg" xmlns:xlink="http://www.w3.org/1999/xlink" x="0px" y="0px"
	 width="1000px" height="1000px" viewBox="0 0 1000 1000" enable-background="new 0 0 1000 1000" xml:space="preserve">
<g>
	<path fill-rule="evenodd" clip-rule="evenodd" fill="#FFFFFF" d="M1001.926,1001.926c-333.358,0-666.643,0-999.852,0
		c0-333.358,0-666.643,0-999.852c333.358,0,666.642,0,999.852,0C1001.926,335.433,1001.926,668.716,1001.926,1001.926z
		 M358.518,597.699c27.406,0,53.045-0.009,78.684,0.003c15.131,0.006,15.48,0.271,15.495,15.722
		c0.051,52.992,0.279,105.987-0.203,158.976c-0.093,10.093,2.639,12.954,12.852,12.926c122.981-0.348,245.965-0.338,368.946-0.013
		c9.937,0.026,13.057-2.35,13.033-12.713c-0.335-149.645-0.29-299.29-0.06-448.936c0.012-7.949-2.271-12.719-9.187-16.868
		C728.701,241.163,619.427,175.358,510.3,109.309c-7.282-4.408-12.574-4.428-19.849-0.024
		C381.9,174.995,273.216,240.485,164.396,305.752c-7.479,4.486-10.436,9.361-10.394,18.222
		c0.355,76.321,0.203,152.645,0.203,228.967c0,111.651-0.005,223.302,0.009,334.953c0.002,13.151,0.053,13.164,13.357,13.171
		c22.33,0.01,44.66,0.004,66.99,0.002c14.81-0.002,14.823-0.005,14.823-14.551c0.004-168.976,0.064-337.952-0.17-506.928
		c-0.013-9.028,2.619-14.453,10.581-19.211c77.483-46.299,154.766-92.937,231.955-139.726c6.321-3.831,11.077-3.691,17.292,0.073
		c77.772,47.111,155.648,94.053,233.627,140.823c6.235,3.74,8.348,8.162,8.333,15.304c-0.201,99.985-0.263,199.972,0.063,299.957
		c0.032,9.738-2.953,12.358-12.472,12.288c-54.989-0.405-109.983-0.197-164.976-0.196c-24.576,0-24.576,0-24.576-24.489
		c0-19.91,0-39.819,0-60.29c34.405-13.177,69.528-2.375,103.691-7.563c0.281-1.374,0.763-2.63,0.765-3.886
		c0.065-38.327,0.278-76.657-0.216-114.978c-0.046-3.516-3.901-8.181-7.259-10.274c-43.794-27.313-87.886-54.147-131.704-81.422
		c-5.952-3.705-10.391-3.695-16.3-0.021c-43.831,27.252-87.779,54.318-131.899,81.099c-5.982,3.631-7.823,7.771-7.74,14.467
		c0.332,26.659,0.137,53.324,0.136,79.987C358.518,573.113,358.518,584.696,358.518,597.699z"/>
	<path fill-rule="evenodd" clip-rule="evenodd" fill="#1C75BC" d="M358.518,597.699c0-13.003,0-24.586,0-36.169
		c0.001-26.663,0.196-53.328-0.136-79.987c-0.083-6.696,1.758-10.836,7.74-14.467c44.12-26.78,88.068-53.847,131.899-81.099
		c5.909-3.674,10.348-3.684,16.3,0.021c43.818,27.274,87.91,54.109,131.704,81.422c3.357,2.094,7.213,6.759,7.259,10.274
		c0.494,38.32,0.281,76.65,0.216,114.978c-0.002,1.256-0.483,2.512-0.765,3.886c-34.163,5.188-69.286-5.614-103.691,7.563
		c0,20.471,0,40.38,0,60.29c0,24.489,0,24.489,24.576,24.489c54.992-0.001,109.986-0.209,164.976,0.196
		c9.519,0.07,12.504-2.55,12.472-12.288c-0.326-99.985-0.265-199.972-0.063-299.957c0.015-7.142-2.098-11.563-8.333-15.304
		c-77.979-46.771-155.854-93.712-233.627-140.823c-6.215-3.765-10.971-3.904-17.292-0.073
		c-77.189,46.789-154.472,93.427-231.955,139.726c-7.962,4.758-10.594,10.183-10.581,19.211
		c0.234,168.976,0.174,337.952,0.17,506.928c0,14.546-0.014,14.549-14.823,14.551c-22.33,0.002-44.66,0.008-66.99-0.002
		c-13.305-0.007-13.355-0.02-13.357-13.171c-0.014-111.651-0.009-223.302-0.009-334.953c0-76.322,0.152-152.646-0.203-228.967
		c-0.042-8.86,2.914-13.735,10.394-18.222C273.216,240.485,381.9,174.995,490.451,109.284c7.274-4.403,12.566-4.384,19.849,0.024
		c109.127,66.05,218.401,131.854,327.778,197.487c6.916,4.149,9.198,8.919,9.187,16.868c-0.23,149.646-0.275,299.291,0.06,448.936
		c0.023,10.363-3.097,12.739-13.033,12.713c-122.981-0.325-245.965-0.335-368.946,0.013c-10.213,0.028-12.944-2.833-12.852-12.926
		c0.482-52.988,0.254-105.983,0.203-158.976c-0.015-15.451-0.364-15.716-15.495-15.722
		C411.563,597.69,385.924,597.699,358.518,597.699z"/>
</g>
</svg>
