<?xml version="1.0" encoding="utf-8"?>
<!-- Generator: Adobe Illustrator 16.0.0, SVG Export Plug-In . SVG Version: 6.00 Build 0)  -->
<!DOCTYPE svg PUBLIC "-//W3C//DTD SVG 1.1//EN" "http://www.w3.org/Graphics/SVG/1.1/DTD/svg11.dtd">
<svg version="1.1" id="Layer_1" xmlns="http://www.w3.org/2000/svg" xmlns:xlink="http://www.w3.org/1999/xlink" x="0px" y="0px"
	 width="1000px" height="1000px" viewBox="0 0 1000 1000" enable-background="new 0 0 1000 1000" xml:space="preserve">
<g>
	<path fill-rule="evenodd" clip-rule="evenodd" fill="#FFFFFF" d="M518.582,787.342c42.97,0,85.94,0.019,128.911-0.01
		c14.72-0.01,19.518-3.557,23.498-17.711c23.728-84.379,47.424-168.766,71.064-253.169c5.092-18.177-0.763-25.776-19.708-25.782
		c-86.607-0.028-173.215-0.022-259.822-0.002c-13.489,0.003-17.47,3.026-21.162,16.142c-23.842,84.688-47.668,169.38-71.452,254.085
		c-5.335,19,0.244,26.423,19.759,26.438C432.641,787.365,475.611,787.343,518.582,787.342z M411.318,445.1
		c42.99,0,85.981,0.005,128.973-0.002c15.802-0.003,18.899-2.211,23.203-17.449c23.762-84.138,47.444-168.297,71.183-252.44
		c4.912-17.41-0.224-24.3-18.369-24.303c-86.648-0.012-173.297-0.008-259.946-0.002c-15.392,0.001-17.515,1.501-21.674,16.255
		c-23.993,85.106-47.946,170.225-71.876,255.35c-4.353,15.484,1.167,22.568,17.533,22.58
		C324.003,445.121,367.66,445.1,411.318,445.1z M285.711,657.696c21.972,0,43.954-0.417,65.909,0.176
		c10.919,0.295,16.718-4.392,19.501-14.36c12.046-43.138,24.262-86.228,36.206-129.393c4.093-14.791-2.369-23.348-17.677-23.402
		c-43.941-0.158-87.885,0.021-131.826-0.115c-10.551-0.032-16.496,4.695-19.308,14.876c-11.923,43.177-24.199,86.256-36.253,129.397
		c-4.28,15.318,1.432,22.719,17.534,22.792C241.769,657.766,263.74,657.691,285.711,657.696z M680.749,445.1
		c20.968,0,41.937,0.007,62.904-0.002c15.638-0.007,19.078-2.616,23.232-17.441c11.376-40.6,22.751-81.198,34.158-121.789
		c5.403-19.225-0.287-26.892-20.292-26.917c-41.604-0.055-83.207-0.039-124.811-0.004c-13.79,0.011-18.122,3.199-21.962,16.769
		c-12.025,42.482-23.961,84.99-35.813,127.521c-3.977,14.271,1.824,21.785,16.683,21.841
		C636.815,445.159,658.782,445.099,680.749,445.1z"/>
	<path fill-rule="evenodd" clip-rule="evenodd" fill="#1C75BC" d="M518.582,787.343c-42.971,0-85.941,0.022-128.912-0.011
		c-19.515-0.015-25.094-7.438-19.759-26.438c23.784-84.705,47.61-169.396,71.452-254.085c3.692-13.115,7.673-16.139,21.162-16.142
		c86.607-0.021,173.215-0.026,259.822,0.002c18.945,0.006,24.8,7.605,19.708,25.782c-23.641,84.403-47.337,168.79-71.064,253.169
		c-3.98,14.154-8.778,17.701-23.498,17.711C604.522,787.36,561.552,787.342,518.582,787.343z"/>
	<path fill-rule="evenodd" clip-rule="evenodd" fill="#1C75BC" d="M411.318,445.1c-43.658,0-87.315,0.021-130.974-0.012
		c-16.366-0.012-21.886-7.096-17.533-22.58c23.93-85.125,47.883-170.243,71.876-255.35c4.159-14.754,6.282-16.254,21.674-16.255
		c86.649-0.006,173.298-0.01,259.946,0.002c18.146,0.003,23.281,6.893,18.369,24.303c-23.738,84.144-47.421,168.303-71.183,252.44
		c-4.304,15.238-7.401,17.446-23.203,17.449C497.3,445.104,454.309,445.1,411.318,445.1z"/>
	<path fill-rule="evenodd" clip-rule="evenodd" fill="#F15A29" d="M285.711,657.693c-21.971-0.002-43.942,0.072-65.913-0.026
		c-16.103-0.073-21.814-7.474-17.534-22.792c12.054-43.142,24.33-86.221,36.253-129.397c2.812-10.181,8.757-14.908,19.308-14.876
		c43.941,0.137,87.885-0.043,131.826,0.115c15.308,0.055,21.77,8.611,17.677,23.402c-11.944,43.165-24.16,86.255-36.206,129.393
		c-2.783,9.969-8.582,14.655-19.501,14.36C329.665,657.279,307.683,657.696,285.711,657.693z"/>
	<path fill-rule="evenodd" clip-rule="evenodd" fill="#F15A29" d="M680.749,445.099c-21.967,0-43.934,0.061-65.899-0.021
		c-14.858-0.056-20.659-7.57-16.683-21.841c11.852-42.531,23.787-85.039,35.813-127.521c3.84-13.569,8.172-16.758,21.962-16.769
		c41.604-0.035,83.207-0.051,124.811,0.004c20.005,0.025,25.695,7.692,20.292,26.917c-11.407,40.591-22.782,81.189-34.158,121.789
		c-4.154,14.825-7.595,17.435-23.232,17.441C722.686,445.106,701.717,445.1,680.749,445.099z"/>
</g>
</svg>
