<?xml version="1.0" encoding="utf-8"?>
<!-- Generator: Adobe Illustrator 16.0.0, SVG Export Plug-In . SVG Version: 6.00 Build 0)  -->
<!DOCTYPE svg PUBLIC "-//W3C//DTD SVG 1.1//EN" "http://www.w3.org/Graphics/SVG/1.1/DTD/svg11.dtd">
<svg version="1.1" id="Layer_1" xmlns="http://www.w3.org/2000/svg" xmlns:xlink="http://www.w3.org/1999/xlink" x="0px" y="0px"
	 width="1000px" height="1000px" viewBox="0 0 1000 1000" enable-background="new 0 0 1000 1000" xml:space="preserve">
<g display="none">
	<path fill="#FFFFFF" d="M968.409,961.932c-308.691,0-617.384,0-926.077,0C42.33,653.977,42.33,346.023,42.33,38.069
		c308.693,0,617.388,0,926.079-0.001C968.409,346.023,968.409,653.977,968.409,961.932z M307.896,422.238
		c8.366-4.728,15.43-9.006,22.771-12.734c3.522-1.789,4.506-4.032,4.479-7.791c-0.155-22.337-0.026-44.676-0.135-67.013
		c-0.015-3.221,0.596-5.406,3.682-7.179c49.854-28.642,99.657-57.379,149.405-86.212c2.989-1.734,5.082-1.528,8.009,0.164
		c49.589,28.733,99.248,57.354,148.941,85.907c2.881,1.654,4.115,3.453,4.11,6.902c-0.11,57.969-0.106,115.938-0.008,173.906
		c0.004,3.396-1.112,5.27-4.055,6.952c-33.094,18.976-66.137,38.032-99.095,57.241c-3.078,1.797-4.979,1.543-7.707-0.521
		c-7.915-5.996-17.137-8.73-26.95-8.203c-25.7,1.377-43.177,22.99-41.551,47.15c1.56,23.23,25.478,43.16,48.542,39.354
		c24.329-4.021,38.989-22.084,37.768-47.131c-0.195-4.033,1.119-5.855,4.344-7.705c36.92-21.186,73.734-42.563,110.69-63.686
		c3.732-2.131,4.908-4.437,4.9-8.648c-0.142-67.569-0.17-135.136,0.048-202.704c0.016-5.057-1.778-7.406-5.879-9.763
		c-57.845-33.235-115.615-66.594-173.305-100.095c-3.666-2.128-6.175-2.169-9.84-0.042
		c-58.169,33.776-116.419,67.417-174.73,100.951c-3.331,1.914-4.542,3.971-4.524,7.782c0.146,32.306,0.083,64.615,0.083,96.922
		C307.896,417.685,307.896,419.327,307.896,422.238z M526.119,457.952c0.087,0.909,0.141,1.095,0.114,1.269
		c-3.939,24.958,13.219,48.521,36.918,50.693c26.97,2.473,49.047-16.203,49.181-42.575c0.087-17.17-7.857-30.704-23.246-38.708
		c-15.75-8.19-31.407-6.796-45.845,3.578c-3.147,2.262-5.069,2.126-8.17,0.322c-37.426-21.78-74.959-43.371-112.384-65.157
		c-3.396-1.976-5.889-2.145-9.42-0.095c-58.003,33.672-116.088,67.198-174.208,100.668c-3.042,1.753-4.371,3.63-4.366,7.33
		c0.125,68.662,0.12,137.324,0.012,205.986c-0.005,3.461,1.25,5.254,4.113,6.902c58.447,33.643,116.854,67.352,175.219,101.139
		c2.813,1.627,4.92,2.162,7.991,0.375c28.98-16.859,58.071-33.545,87.118-50.295c1.354-0.778,2.629-1.691,4.426-2.855
		c-7.757-4.553-15.021-8.543-21.982-13.007c-3.4-2.185-5.925-2.14-9.442-0.075c-21.145,12.375-42.453,24.465-63.667,36.629
		c-0.771-0.344-1.479-0.586-2.111-0.953c-50.602-29.172-101.178-58.387-151.834-87.463c-3.335-1.916-3.732-4.371-3.728-7.695
		c0.065-57.035,0.102-114.068-0.062-171.103c-0.012-4.465,1.408-6.827,5.245-9.024c45.402-26.01,90.698-52.206,136.023-78.348
		c5.43-3.133,10.901-8.72,16.307-8.661c5.646,0.062,11.234,5.566,16.849,8.69c0.162,0.092,0.334,0.159,0.493,0.25
		C465.823,423.168,495.982,440.567,526.119,457.952z M680.71,400.623c0,9.699,0.209,18.007-0.095,26.296
		c-0.136,3.718,1.311,5.6,4.384,7.346c19.691,11.188,39.224,22.653,58.95,33.776c3.723,2.1,4.942,4.467,4.933,8.708
		c-0.146,57.045-0.15,114.094,0.002,171.141c0.014,4.264-1.285,6.548-4.976,8.666c-49.548,28.434-99.021,57.01-148.449,85.652
		c-2.875,1.666-5.025,1.91-8.015,0.176c-49.899-28.934-99.854-57.78-149.866-86.523c-2.97-1.707-3.999-3.576-3.989-6.947
		c0.114-38.217,0.116-76.435-0.003-114.65c-0.011-3.434,0.987-5.116,4.229-6.555c17.983-7.979,28.361-27.284,25.111-46.076
		c-3.548-20.493-20.561-35.865-40.62-36.694c-20.709-0.856-39.368,12.717-44.246,32.183c-5.253,20.966,4.208,41.317,23.964,50.46
		c3.8,1.758,4.526,3.869,4.521,7.521c-0.087,42.646,0.036,85.294-0.187,127.939c-0.022,4.744,1.524,7.229,5.491,9.508
		c58.488,33.604,116.912,67.32,175.28,101.129c3.125,1.813,5.332,1.771,8.441-0.033c58.193-33.744,116.442-67.387,174.751-100.938
		c3.229-1.859,4.627-3.799,4.623-7.697c-0.136-68.494-0.12-136.984-0.028-205.479c0.006-3.532-0.917-5.569-4.164-7.417
		c-25.947-14.765-51.753-29.778-77.619-44.688C689.378,405.258,685.531,403.254,680.71,400.623z"/>
	<path fill="#FFFFFF" d="M512.997,584.984c12.379-0.037,22.208,9.563,22.323,21.813c0.112,12.273-10.235,22.662-22.424,22.508
		c-12.168-0.156-22.066-10.184-22.028-22.314C490.905,594.701,500.641,585.021,512.997,584.984z"/>
	<path fill="#FFFFFF" d="M590.979,467.464c-0.094,12.271-9.914,21.747-22.41,21.621c-12.127-0.123-22.142-10.325-21.906-22.319
		c0.231-12.099,10.403-22.189,22.341-22.169C581.274,444.621,591.072,454.816,590.979,467.464z"/>
	<path fill="#FFFFFF" d="M420.083,510.284c-12.426,0.009-22.2-9.559-22.269-21.79c-0.067-12.409,10.107-22.657,22.369-22.525
		c12.008,0.13,22.076,10.337,22.063,22.362C442.233,500.575,432.441,510.273,420.083,510.284z"/>
</g>
<g>
	<path fill="none" stroke="#C83232" stroke-width="23" stroke-linecap="round" stroke-linejoin="round" stroke-miterlimit="10" d="
		M224.396,368.657c0-45.186,0.087-76.375-0.118-121.559c-0.024-5.33,1.669-8.208,6.328-10.884
		c81.558-46.902,163.029-93.954,244.385-141.194c5.128-2.975,8.635-2.919,13.762,0.059
		c80.685,46.856,161.487,93.513,242.391,139.997c5.735,3.296,8.243,6.582,8.224,13.655c-0.305,94.502-0.264,189.005-0.067,283.51
		c0.011,5.894-1.634,9.119-6.854,12.099c-51.688,29.543-103.181,59.442-154.817,89.07c-4.509,2.588-6.349,5.136-6.076,10.776
		c1.712,35.031-18.794,60.298-52.82,65.919 M511.258,618.939c-17.283,0.052-30.898,13.591-30.951,30.777
		c-0.053,16.971,13.791,30.991,30.81,31.212c17.046,0.216,31.521-14.313,31.362-31.479
		C542.318,632.317,528.571,618.888,511.258,618.939z"/>
</g>
<path display="none" fill="#1C75BC" d="M529.61,441.268c-42.15-24.314-84.332-48.65-126.519-72.981
	c-0.223-0.128-0.463-0.224-0.689-0.35c-7.852-4.369-15.667-12.073-23.565-12.157c-7.558-0.081-15.213,7.732-22.807,12.114
	c-63.395,36.563-126.748,73.202-190.248,109.58c-5.367,3.073-7.354,6.381-7.336,12.622c0.228,79.771,0.176,159.538,0.087,239.312
	c-0.006,4.648,0.549,8.083,5.214,10.763c70.85,40.667,141.588,81.528,212.361,122.329c0.888,0.514,1.876,0.853,2.951,1.333
	c29.673-17.013,59.477-33.923,89.049-51.23c4.923-2.886,8.448-2.946,13.208,0.106c9.737,6.242,19.896,11.824,30.744,18.19
	c-2.513,1.628-4.297,2.905-6.188,3.994c-40.628,23.429-81.313,46.764-121.847,70.346c-4.297,2.499-7.245,1.751-11.178-0.524
	c-81.629-47.256-163.322-94.402-245.069-141.457c-4.005-2.306-5.759-4.813-5.752-9.652c0.15-96.034,0.158-192.069-0.017-288.104
	c-0.007-5.175,1.852-7.8,6.107-10.252c81.289-46.813,162.53-93.705,243.654-140.799c4.94-2.867,8.426-2.629,13.176,0.133
	c52.344,30.471,104.838,60.669,157.184,91.132c4.337,2.524,7.023,2.712,11.427-0.451c20.193-14.509,42.093-16.46,64.121-5.004
	c21.522,11.195,32.634,30.124,32.514,54.14c-0.188,36.886-31.065,63.005-68.786,59.547c-33.146-3.04-57.146-35.995-51.636-70.902
	C529.807,442.798,529.732,442.539,529.61,441.268z M620.325,454.571c0.133-17.689-13.571-31.95-30.738-31.983
	c-16.696-0.03-30.919,14.085-31.247,31.006c-0.326,16.775,13.678,31.044,30.639,31.217
	C606.456,484.987,620.194,471.731,620.325,454.571z"/>
<path display="none" fill="#F15A29" d="M745.827,361.084c6.743,3.681,12.124,6.484,17.375,9.511
	c36.178,20.851,72.271,41.852,108.562,62.5c4.541,2.584,5.832,5.434,5.824,10.374c-0.129,95.797-0.146,191.594,0.039,287.393
	c0.006,5.451-1.949,8.165-6.466,10.766c-81.551,46.925-163.021,93.975-244.413,141.175c-4.35,2.522-7.438,2.58-11.807,0.047
	c-81.638-47.286-163.351-94.441-245.153-141.442c-5.55-3.188-7.716-6.662-7.682-13.298c0.31-59.647,0.138-119.294,0.259-178.941
	c0.011-5.106-1.008-8.062-6.32-10.519c-27.632-12.788-40.865-41.251-33.517-70.575c6.82-27.227,32.918-46.209,61.883-45.013
	c28.058,1.161,51.851,22.661,56.813,51.323c4.546,26.283-9.969,53.282-35.12,64.444c-4.533,2.012-5.929,4.365-5.916,9.168
	c0.168,53.452,0.164,106.904,0.005,160.354c-0.015,4.716,1.427,7.329,5.579,9.718c69.948,40.202,139.817,80.55,209.608,121.017
	c4.183,2.426,7.188,2.084,11.21-0.246c69.137-40.063,138.327-80.031,207.627-119.797c5.16-2.963,6.977-6.159,6.959-12.121
	c-0.214-79.788-0.209-159.578-0.003-239.364c0.02-5.931-1.692-9.241-6.897-12.179c-27.593-15.558-54.909-31.593-82.45-47.241
	c-4.299-2.44-6.321-5.073-6.131-10.273C746.119,386.27,745.827,374.649,745.827,361.084z M381.304,514.461
	c17.285-0.015,30.98-13.579,31.001-30.704c0.021-16.819-14.064-31.096-30.856-31.276c-17.151-0.185-31.383,14.148-31.289,31.505
	C350.254,501.095,363.925,514.474,381.304,514.461z"/>
<g>
	<path fill="none" stroke="#32C832" stroke-width="23" stroke-linecap="round" stroke-linejoin="round" stroke-miterlimit="10" d="
		M769.59,377.619c39.145,22.571,66.121,38.225,105.367,60.618c4.629,2.641,6.275,5.546,6.268,10.918
		c-0.107,94.083-0.041,188.165,0.244,282.241c0.016,5.929-1.783,8.939-6.926,11.893c-80.895,46.493-161.676,93.188-242.357,140.055
		c-5.719,3.322-9.818,3.854-15.936,0.304c-81.715-47.469-163.606-94.638-245.574-141.675c-5.112-2.934-7.085-5.971-7.059-11.98
		c0.226-59.535,0.044-119.079,0.171-178.61c0.01-5.2-1.277-8.066-6.301-10.647c-31.202-16.017-42.849-46.401-30.722-78.687
		 M409.478,501.109c8.589-14.998,3.66-33.555-11.203-42.186c-14.676-8.523-33.735-3.532-42.428,11.1
		c-8.702,14.66-3.347,34.457,11.604,42.895C382.374,521.336,400.875,516.136,409.478,501.109z"/>
</g>
<g>
	<path fill="none" stroke="#3232C8" stroke-width="23" stroke-linecap="round" stroke-linejoin="round" stroke-miterlimit="10" d="
		M491.023,844.226c-39.137,22.588-66.192,38.104-105.225,60.867c-4.603,2.686-7.942,2.658-12.588-0.039
		c-81.391-47.191-162.87-94.232-244.453-141.08c-5.14-2.953-6.845-6.019-6.828-11.948c0.249-93.303,0.266-186.607,0.083-279.914
		c-0.013-6.615,1.581-10.431,7.716-13.949c81.999-46.976,163.826-94.251,245.578-141.664c5.1-2.955,8.715-3.145,13.905-0.111
		c51.425,29.999,103.06,59.648,154.533,89.56c4.496,2.611,7.623,2.932,12.371-0.124c29.484-18.994,61.619-13.867,83.498,12.793
		 M564.391,470.664c8.684,14.944,27.217,19.969,42.127,11.421c14.727-8.436,19.949-27.435,11.635-42.287
		c-8.338-14.869-28.156-20.145-42.943-11.426C560.451,437.075,555.691,455.695,564.391,470.664z"/>
</g>
</svg>
