<?xml version="1.0" encoding="utf-8"?>
<!-- Generator: Adobe Illustrator 16.0.0, SVG Export Plug-In . SVG Version: 6.00 Build 0)  -->
<!DOCTYPE svg PUBLIC "-//W3C//DTD SVG 1.1//EN" "http://www.w3.org/Graphics/SVG/1.1/DTD/svg11.dtd">
<svg version="1.1" id="Layer_1" xmlns="http://www.w3.org/2000/svg" xmlns:xlink="http://www.w3.org/1999/xlink" x="0px" y="0px"
	 width="1000px" height="1000px" viewBox="0 0 1000 1000" enable-background="new 0 0 1000 1000" xml:space="preserve">
<g>
	<path fill-rule="evenodd" clip-rule="evenodd" fill="#FFFFFF" d="M2,1002C2,668.667,2,335.334,2,2c333.333,0,666.666,0,1000,0
		c0,333.333,0,666.666,0,999.999C668.667,1002,335.333,1002,2,1002z M452.69,337.407c-3.991,1.826-6.867,3.38-9.904,4.495
		c-33.182,12.186-59.533,33.293-80.919,61.154c-37.371,48.688-41.802,105.138-38.425,163.287c0.708,12.2,9.348,18.742,21.554,18.982
		c4.33,0.085,8.663,0.061,12.994,0.007c14.111-0.175,22.386-7.812,23.108-21.943c0.459-8.974,0.214-17.986,0.224-26.981
		c0.033-31.134,9.065-59.618,25.597-85.784c46.813-74.097,141.019-75.157,189.216-2.229c20.753,31.4,28.504,66.504,27.746,103.417
		c-0.561,27.3,5.277,35.227,34.187,33.534c0.664-0.039,1.333,0.012,1.999-0.01c12.664-0.413,21.392-8.726,21.258-21.454
		c-0.229-21.621,0.558-43.433-2.002-64.814c-8.606-71.897-44.976-124.509-111.659-154.88c-4.758-2.167-9.664-4.008-15.221-6.296
		c1.548-2.061,2.376-3.421,3.446-4.552c38.913-41.089,42.125-102.377,7.673-146.921c-26.716-34.542-74.918-41.039-108.18-13.945
		c-34.007,27.701-42.259,64.672-35.59,106.066C423.497,301.533,434.663,320.987,452.69,337.407z M724.524,347.408
		c-4.704,2.128-8.255,3.817-11.87,5.354c-18.075,7.69-33.759,18.774-46.315,33.862c-2.206,2.65-3.881,8.28-2.56,10.896
		c6.403,12.682,13.911,24.805,21.385,37.742c2.204-3.331,4.333-6.575,6.488-9.801c33.085-49.51,94.288-52.087,131.118-5.374
		c17.183,21.794,23.971,47.245,24.042,74.51c0.211,80.622,0.078,161.246,0.082,241.868c0,2.999-0.157,6.011,0.071,8.993
		c0.768,9.996,8.812,18.487,18.315,19.513c8.381,0.903,17.892-6.313,20.224-15.847c1.014-4.146,1.48-8.525,1.496-12.802
		c0.12-31.982,0.254-63.967,0.025-95.947c-0.412-57.597,0.609-115.271-2.115-172.764c-2.608-55.028-31.507-94.021-82.193-116.386
		c-2.558-1.129-5-2.517-8.239-4.16c2.556-3.303,4.264-5.688,6.15-7.922c24.103-28.541,24.749-70.183,1.516-99.447
		c-20.544-25.876-54.828-28.767-79.237-6.681c-26.44,23.923-30.951,69.597-9.76,99.721
		C716.374,337.324,720.015,341.617,724.524,347.408z M207.835,348.367c-1.411,0.653-4.251,2.13-7.208,3.314
		c-53.657,21.484-82.602,76.861-82.016,122.96c0.786,61.951,0.185,123.92,0.187,185.881c0.001,28.315,0.075,56.631,0.003,84.946
		c-0.023,8.835,4.696,14.141,12.152,17.772c7.831,3.815,15.215,1.474,19.823-4.424c3.712-4.751,6.188-11.83,6.217-17.892
		c0.399-81.946,0.176-163.896,0.339-245.845c0.05-24.767,5.914-48.02,19.743-68.989c34.912-52.94,102.124-52.631,136.303,0.694
		c1.893,2.954,3.954,5.8,6.09,8.92c6.917-12.258,13.011-24.039,20.093-35.192c3.554-5.596,3.071-9.167-1.168-13.935
		c-13.762-15.476-30.051-27.197-49.196-35.025c-2.868-1.173-5.635-2.597-9.242-4.273c2.555-3.251,4.072-5.366,5.775-7.321
		c24.49-28.126,25.716-70.132,2.873-99.429c-20.775-26.646-55.379-30.326-79.754-7.441c-22.077,20.729-28.811,46.964-20.277,75.678
		C192.614,322.37,201.014,334.679,207.835,348.367z"/>
	<path fill-rule="evenodd" clip-rule="evenodd" fill="#F15A29" d="M452.69,337.407c-18.027-16.42-29.193-35.874-32.898-58.866
		c-6.669-41.395,1.583-78.365,35.59-106.066c33.262-27.094,81.464-20.597,108.18,13.945c34.452,44.544,31.24,105.832-7.673,146.921
		c-1.07,1.131-1.898,2.491-3.446,4.552c5.557,2.288,10.463,4.129,15.221,6.296c66.684,30.371,103.053,82.982,111.659,154.88
		c2.56,21.382,1.773,43.193,2.002,64.814c0.134,12.729-8.594,21.041-21.258,21.454c-0.666,0.021-1.335-0.029-1.999,0.01
		c-28.909,1.692-34.747-6.234-34.187-33.534c0.758-36.913-6.993-72.017-27.746-103.417c-48.197-72.929-142.403-71.868-189.216,2.229
		c-16.531,26.166-25.563,54.65-25.597,85.784c-0.01,8.995,0.235,18.008-0.224,26.981c-0.723,14.132-8.997,21.769-23.108,21.943
		c-4.331,0.054-8.664,0.078-12.994-0.007c-12.206-0.24-20.846-6.782-21.554-18.982c-3.377-58.149,1.054-114.6,38.425-163.287
		c21.386-27.861,47.737-48.969,80.919-61.154C445.823,340.787,448.699,339.233,452.69,337.407z"/>
	<path fill-rule="evenodd" clip-rule="evenodd" fill="#1C75BC" d="M724.524,347.408c-4.51-5.791-8.15-10.084-11.377-14.67
		c-21.191-30.124-16.681-75.798,9.76-99.721c24.409-22.086,58.693-19.195,79.237,6.681c23.233,29.265,22.587,70.906-1.516,99.447
		c-1.887,2.233-3.595,4.619-6.15,7.922c3.239,1.644,5.682,3.031,8.239,4.16c50.687,22.364,79.585,61.357,82.193,116.386
		c2.725,57.493,1.703,115.167,2.115,172.764c0.229,31.98,0.095,63.965-0.025,95.947c-0.016,4.276-0.482,8.655-1.496,12.802
		c-2.332,9.534-11.843,16.75-20.224,15.847c-9.504-1.025-17.548-9.517-18.315-19.513c-0.229-2.982-0.071-5.994-0.071-8.993
		c-0.004-80.622,0.129-161.246-0.082-241.868c-0.071-27.265-6.859-52.716-24.042-74.51c-36.83-46.713-98.033-44.136-131.118,5.374
		c-2.155,3.226-4.284,6.47-6.488,9.801c-7.474-12.938-14.981-25.061-21.385-37.742c-1.321-2.616,0.354-8.246,2.56-10.896
		c12.557-15.088,28.24-26.172,46.315-33.862C716.27,351.226,719.82,349.536,724.524,347.408z"/>
	<path fill-rule="evenodd" clip-rule="evenodd" fill="#1C75BC" d="M207.835,348.367c-6.821-13.688-15.221-25.997-19.264-39.601
		c-8.533-28.714-1.8-54.949,20.277-75.678c24.375-22.885,58.979-19.205,79.754,7.441c22.843,29.297,21.617,71.303-2.873,99.429
		c-1.703,1.955-3.221,4.07-5.775,7.321c3.607,1.677,6.374,3.101,9.242,4.273c19.146,7.828,35.435,19.55,49.196,35.025
		c4.239,4.768,4.722,8.339,1.168,13.935c-7.082,11.153-13.176,22.935-20.093,35.192c-2.136-3.12-4.197-5.966-6.09-8.92
		c-34.179-53.325-101.391-53.635-136.303-0.694c-13.829,20.97-19.693,44.223-19.743,68.989
		c-0.163,81.948,0.061,163.898-0.339,245.845c-0.029,6.062-2.505,13.141-6.217,17.892c-4.608,5.897-11.992,8.239-19.823,4.424
		c-7.456-3.632-12.176-8.938-12.152-17.772c0.072-28.315-0.002-56.631-0.003-84.946c-0.002-61.961,0.6-123.93-0.187-185.881
		c-0.586-46.099,28.358-101.476,82.016-122.96C203.584,350.497,206.424,349.021,207.835,348.367z"/>
</g>
</svg>
