<svg xmlns="http://www.w3.org/2000/svg" width="1000" height="1000">
  <g fill-rule="evenodd" clip-rule="evenodd">
    <path fill="#F15A29"
      d="M706.19 449.213h-6.445c-92.639 0-185.275-.022-277.914.018-16.297.008-28.912-6.774-36.613-20.998-7.382-13.634-5.3-27.268 2.318-40.473 23.282-40.356 46.34-80.842 69.622-121.198 13.055-22.629 25.955-45.366 39.691-67.579 16.721-27.042 51.969-25.925 67.836 1.675 23.435 40.764 46.829 81.552 70.344 122.27 17.75 30.735 35.661 61.377 53.49 92.067.319.548.504 1.174 1.109 2.617-6.544-3.245-12.157-6.977-18.335-8.879-10.743-3.308-21.869-5.353-32.749-8.248-2.186-.582-4.769-2.14-5.857-4.011-24.757-42.514-49.2-85.21-74.029-127.681-6.431-10.999-16.038-17.464-29.579-16.798-12.269.604-20.887 6.681-26.87 16.951-16.876 28.969-33.667 57.987-50.508 86.974-5.476 9.423-9.412 18.954-6.164 30.339 3.833 13.438 16.082 23.264 30.297 23.271 49.276.021 98.551-.066 147.827.042 24.367.053 47.001 6.162 66.539 21.209 6.271 4.829 11.593 10.89 17.349 16.386l-1.359 2.046zM396.124 761.814c14.37 0 28.74.062 43.11-.011 79.681-.399 159.361-1.007 239.042-1.169 34.342-.07 68.685.854 103.028 1.077 5.156.033 10.506-.668 15.45-2.111 20.227-5.905 28.828-27.627 18.244-46.52-11.151-19.911-22.923-39.474-34.301-59.259-18.205-31.653-36.242-63.403-54.48-95.037-12.818-22.233-25.879-44.326-38.778-66.512-6.216-10.688-12.311-21.447-18.728-32.64 1.594-.566 2.715-1.305 3.842-1.313 12.263-.086 24.534-.268 36.785.131 2.272.074 5.373 2.08 6.555 4.096 13.521 23.06 26.698 46.32 40.061 69.475 17.058 29.559 34.235 59.05 51.299 88.606 17.49 30.298 34.961 60.609 52.327 90.979 6.896 12.059 13.723 24.168 20.167 36.471 12.497 23.859-9.867 53.49-36.288 53.411-23.215-.069-46.428-.01-69.641-.01-105.994.002-211.988-.035-317.982.104-5.846.008-9.781-1.226-13.76-6.195-12.154-15.174-27.969-25.748-45.952-33.573z" />
    <path fill="#1C75BC"
      d="M430.314 800.176h-7.12c-92.226-.001-184.451.013-276.677-.013-19.907-.006-34.109-10.948-39.296-30.131-2.611-9.655-.515-18.757 4.274-27.102 36.718-63.974 73.59-127.858 110.407-191.775 24.691-42.866 49.369-85.74 74.057-128.608 13.202-22.923 26.414-45.841 40.156-69.688l32.276 20.277c-8.589 15.164-16.878 30.007-25.364 44.736-24.693 42.863-49.461 85.684-74.207 128.518-13.578 23.503-27.137 47.017-40.76 70.493-18.428 31.759-37.016 63.427-55.33 95.252-11.77 20.452-1.691 50.724 31.442 50.658 46.879-.093 93.759.17 140.638-.093 18.928-.106 37.328 2.433 53.953 11.463 9.659 5.246 17.99 12.966 26.786 19.744 1.594 1.226 2.544 3.284 4.765 6.269z" />
    <path fill="#1C75BC"
      d="M603.326 625.344l4.63-2.52c-.405-.752-.811-1.503-1.215-2.255-2.453-.16-4.906-.459-7.36-.461-44.252-.028-88.505-.003-132.757-.031-13.49-.008-21.935-5.533-24.143-17.364-.872-4.673.22-10.65 2.562-14.835 17.1-30.555 34.741-60.807 52.223-91.147 3.168-5.499 6.182-11.103 9.628-16.423 9.003-13.897 27.458-14.17 35.831.111 22.581 38.511 44.591 77.355 66.811 116.077.308.535.404 1.193.609 1.822-7.83-1.978-15.672-3.559-23.197-6.084-2.466-.827-4.596-3.819-6.054-6.306-13.064-22.278-25.81-44.744-38.927-66.991-8.274-14.033-24.993-14.522-33.472-.719-10.764 17.525-21.66 35.074-30.804 53.456-6.586 13.239.414 28.071 18.654 28.231 28.915.252 57.84-.239 86.749.281 15.51.28 28.589 6.918 39.28 18.795l-6.527 3.591c13.784.854 14.964 11.72 19.477 19.188 12.788 21.164 25.052 42.652 37.195 64.197 9.583 17.002.31 32.516-19.19 32.604-86.271.389-172.542.762-258.813 1.139-2.339.011-4.678.002-7.267.002 5.114-12.722 19.182-21.246 34.558-21.253 66.598-.031 133.195.051 199.793-.179 4.548-.017 9.75-1.229 13.498-3.66 8.832-5.725 10.339-16.079 4.563-26.194-11.937-20.902-24.022-41.72-36.335-63.072z" />
    <path fill="#F15A29"
      d="M435.631 259.179l-36.239-18.782c13.139-22.819 25.514-44.965 38.542-66.721 9.575-15.991 36.09-19.799 51.267-7.48-17.672 30.672-35.397 61.437-53.57 92.983zm-92.757 79.722l45.658-80.336 35.633 20.285-46.102 80.163-35.189-20.112z" />
    <path fill="#1C75BC"
      d="M230.741 705.138c4.583.001 9.168.087 13.748-.024 4.281-.104 6.611 1.674 6.606 6.115-.009 9.166-.03 18.332.014 27.497.019 4.013-1.894 6.206-5.881 6.241-9.602.085-19.205-.032-28.805.076-4.859.055-5.993-3.478-6.131-6.914-.357-8.933-.271-17.892-.081-26.834.087-4.098 2.435-6.299 6.782-6.185 4.58.121 9.166.028 13.748.028zm59.393 39.884c-4.38-.001-8.763-.097-13.14.025-4.361.12-6.507-1.745-6.474-6.211.069-9.197.08-18.396-.003-27.593-.041-4.556 2.264-6.183 6.545-6.136 8.978.096 17.958.119 26.936-.006 4.848-.067 6.587 2.245 6.513 6.866a762.176 762.176 0 00.011 26.277c.095 5.168-2.329 7.049-7.25 6.82-4.371-.2-8.759-.04-13.138-.042zm76.732-19.685c-.004 4.599-.037 9.197.005 13.796.037 4.111-1.932 5.949-6.048 5.911-9.196-.084-18.396-.096-27.592.006-4.493.049-6.286-2.046-6.233-6.418.108-8.978.126-17.959-.01-26.935-.065-4.327 1.563-6.599 6.086-6.57 9.197.059 18.396.077 27.592-.012 4.472-.044 6.351 2.044 6.232 6.427-.124 4.595-.027 9.196-.032 13.795z" />
  </g>
</svg>