<?xml version="1.0" encoding="UTF-8"?>
<svg id="Layer_1" data-name="Layer 1" xmlns="http://www.w3.org/2000/svg" viewBox="0 0 199.83 199.83">
  <defs>
    <style>
      .cls-1 {
        fill: #e68344;
      }
    </style>
  </defs>
  <path class="cls-1" d="m144.91,72.78c.28,4.7-.83,9.74-2.59,14.58-.84,2.33-1.98,4.6-3.3,6.77-1.46,2.41-3.11,4.69-4.69,7.01-.94,1.39-1.92,2.79-2.94,4.14-1.68,2.23-3.21,4.58-4.83,6.86-1.74,2.45-3.52,4.87-5.26,7.33-1.61,2.27-3.12,4.61-4.8,6.82-1.88,2.47-3.63,5.04-5.42,7.57-1.64,2.32-3.35,4.61-4.91,7-.93,1.43-1.91,2.85-3.01,4.15-2.12,2.48-4.18,2.85-6.44.08-2-2.46-3.71-5.14-5.57-7.71-1.65-2.27-3.25-4.59-4.83-6.92-1.92-2.84-3.93-5.62-5.93-8.4-1.63-2.25-3.22-4.54-4.85-6.79-1.63-2.24-3.18-4.57-4.79-6.82-1.66-2.31-3.37-4.61-4.99-6.95-1.62-2.33-3.57-4.48-4.69-7.16-.24-.58-.73-1.07-1.04-1.65-1.55-2.88-2.71-5.9-3.65-9.03-1.86-6.16-1.75-12.37-.72-18.61.63-3.84,1.81-7.51,3.31-11.13,1.29-3.13,3-5.99,4.89-8.72,1.34-1.94,2.88-3.78,4.66-5.41.95-.87,1.9-1.78,2.86-2.63,1.49-1.32,3.15-2.46,4.83-3.55,2.6-1.68,5.39-2.92,8.24-4.05,1.51-.6,3.07-.99,4.66-1.36,3.99-.94,8-1.7,12.1-1.44,3.06.19,6.1.72,9.12,1.38,4.18.91,8.04,2.54,11.72,4.56,2.55,1.4,5.02,3,7.15,5.1.85.84,1.8,1.65,2.71,2.47,1.04.95,1.97,2,2.85,3.1,1.16,1.44,2.26,2.91,3.24,4.48,1.33,2.12,2.53,4.31,3.47,6.64,1.73,4.31,3.02,8.72,3.26,13.4.07,1.44.22,2.88.19,4.87Zm-72.33-1.57c-.15,15.45,12.16,27.69,27.72,27.52,14.94-.16,26.47-12.03,26.98-26.42.57-15.83-12.25-28.71-28.15-28.32-14.46.35-26.67,12.24-26.56,27.22Z"/>
  <path class="cls-1" d="m159.45,167.66c-.62-1.39-1.16-2.52-1.8-3.62-1.88-3.23-3.61-6.55-5.42-9.83-1.03-1.87-2.11-3.7-3.15-5.56-.4-.7-.88-1.38-1.13-2.13-.35-1.04-1.09-1.07-1.96-1.07-7.37,0-14.75-.03-22.12.02-1.13,0-1.58-.22-1.6-1.45-.08-4.66-.57-3.8,3.5-3.82,4.21-.02,8.42.1,12.63,0,1.91-.05,3.84.34,5.79-.29-1.73-3.01-3.26-6.06-5-9.01-.84-1.43-1.71-2.87-2.38-4.39-.32-.71-.68-.88-1.38-.87-3.73.03-7.46.02-11.19,0-.43,0-1.02.24-1.25-.21-.22-.42.37-.66.59-.99.74-1.06,1.53-2.09,2.23-3.18.43-.68.98-.89,1.76-.88,3.39.02,6.78,0,10.17,0,1.4,0,2.61.85,2.93,2.18.12.5.36.84.61,1.26,1.25,2.1,2.32,4.31,3.58,6.41,1.17,1.94,2.08,4.02,3.33,5.93.9,1.37,1.65,2.84,2.38,4.31.91,1.83,1.98,3.58,2.98,5.36,1.07,1.9,1.99,3.9,3.11,5.77,1.02,1.7,1.98,3.43,2.89,5.19,1.03,1.98,2.16,3.9,3.23,5.86.93,1.7,1.84,3.43,2.85,5.09.88,1.46,1.63,2.99,2.54,4.44.56.89.17.92-.58.92-6.01-.01-12.01,0-18.02,0-34.93,0-69.85,0-104.78,0-4.1,0-8.2,0-12.3.03-.92,0-1.37-.05-.74-1.11,1.12-1.89,2.23-3.81,3.14-5.8.98-2.12,2.23-4.09,3.23-6.19,1.42-2.99,3.17-5.81,4.72-8.74,1.56-2.95,3.03-5.94,4.57-8.9,1.13-2.16,2.31-4.3,3.45-6.46,1.59-3,3.17-6.01,4.76-9.01,1.02-1.91,2.06-3.81,3.09-5.72.27-.51.6-.8,1.26-.79,3.76.02,7.53.06,11.29-.06,1.41-.04,2.52.24,3.24,1.48.75,1.29,1.68,2.44,2.73,3.87-1.73,0-3.2,0-4.67,0-3.11,0-6.21.02-9.32-.02-.79-.01-1.28.18-1.62.94-1.57,3.42-3.6,6.59-5.14,10.02-.33.74-.9,1.37-1.23,2.13-.46,1.05-.04,1.53.94,1.46,2.44-.18,4.87.11,7.31.07,4.21-.07,8.42,0,12.64,0,.53,0,.76.23.76.74,0,.33,0,.66,0,.99-.03,3.49-.03,3.47-3.58,3.46-6.75-.03-13.51-.01-20.26-.04-1.06,0-1.63.21-2.03,1.41-.49,1.48-1.5,2.8-2.21,4.24-1.45,2.97-3.09,5.85-4.64,8.77-1.13,2.13-2.28,4.26-3.36,6.42-.65,1.29-.56,1.38.96,1.39,7.25.01,14.5.03,21.75.03,10.85,0,21.71-.03,32.56,0,.96,0,1.16-.28,1.14-1.18-.06-3.19,0-6.38-.04-9.57-.01-.83.16-1.18,1.07-1.13,1.07.07,2.15.01,3.23-.03.86-.04,1.24.22,1.22,1.19-.07,3.15,0,6.3-.06,9.45-.02.98.26,1.29,1.25,1.29,12.01-.03,24.03-.03,36.04-.03,5.51,0,11.02,0,16.53,0,.94,0,1.89,0,3.01,0Z"/>
</svg>