<?xml version="1.0" encoding="UTF-8"?>
<svg id="Layer_1" data-name="Layer 1" xmlns="http://www.w3.org/2000/svg" viewBox="0 0 199.83 199.83">
  <defs>
    <style>
      .cls-1 {
        fill: #e68344;
      }
    </style>
  </defs>
  <path class="cls-1" d="m98.25,13.07c2.28,1.07,4.78,1.84,6.78,3.29,3.36,2.44,4.82,6.12,4.86,10.23.07,9.35.02,18.71.02,27.82-3.2,1.48-6.26,2.9-9.4,4.35v-21.66h-60.77v79.71h60.69v-32.47c3.06,2.27,6.03,4.43,8.94,6.67.34.26.52.93.52,1.41.03,11.5.11,23.01,0,34.51-.08,8.24-5.88,13.87-14.1,13.9-17.07.04-34.14.06-51.21.04-8.58-.01-14.35-5.83-14.36-14.46-.01-24.37,0-48.74,0-73.11,0-8.37.15-16.74-.06-25.1-.18-6.99,3.64-12.95,10.41-14.75.16-.04.27-.26.4-.39,19.1,0,38.19,0,57.29,0Zm-40.71,17.68h25v-4.47h-25v4.47Zm12.62,99.63c2.7-.03,5-2.4,4.96-5.1-.05-2.76-2.3-4.98-5.05-4.97-2.86.01-5.11,2.33-5.03,5.17.07,2.77,2.34,4.93,5.12,4.9Zm21.5-104.76c-1.52-.05-2.86,1.16-2.95,2.66-.09,1.56,1.18,3,2.74,3.09,1.49.09,2.82-1.13,2.91-2.66.1-1.62-1.14-3.04-2.7-3.09Z"/>
  <path class="cls-1" d="m148.93,186.76c-2.32-1.2-4.62-2.45-6.98-3.58-4.73-2.25-9.51-4.42-14.24-6.67-.62-.3-1.89-.21-1.42-1.62.03-.08-.72-.49-1.14-.66-3.88-1.53-7.89-1.9-12.03-1.42-9.04,1.03-17.63-.85-25.88-4.4-5.09-2.2-10.17-4.47-15.07-7.07-5.95-3.16-9.76-7.88-9.21-15.12.02-.24.09-.47.14-.71h9.57c-1.07,4.46,1.77,6.31,5.05,8,7.77,4,15.57,8.06,24.29,9.4,4.47.69,9.12.16,13.69.3,2.55.07,5.11.23,7.63.63,1.18.19,1.61-.06,2.06-1.05,7.56-16.41,15.14-32.8,22.72-49.19.82-1.77,1.46-3.66,2.49-5.29,1.28-2.03.94-3.64-.27-5.59-5.62-9.08-10.96-18.33-16.69-27.34-3.04-4.78-7.48-8.12-13.18-9.14-1.99-.36-4.32-.12-6.22.58-3.21,1.18-3.82,4.19-1.3,6.5,2.17,1.99,4.87,3.4,7.25,5.18,1.44,1.07,3.07,2.13,4,3.59,1.84,2.88,1.05,6.14-1.89,7.98-2.39,1.49-5.05,2.54-8,3.99,0-2.13-.11-3.7.03-5.25.14-1.45-.44-2.15-1.67-2.83-4.86-2.65-8.26-6.58-10.04-11.86-1.76-5.21.26-10.43,5.09-13.14,10.62-5.95,22.93-3.81,31.01,5.51,5.47,6.31,9.54,13.57,13.7,20.76,2.65,4.6,5.25,9.23,7.74,13.62.78,0,1.44-.19,1.92.03,7.48,3.42,14.94,6.9,22.58,10.44-1.91,4.09-3.78,8.09-5.64,12.11-9.21,19.87-18.43,39.73-27.62,59.61-.55,1.19-.91,2.47-1.36,3.7-.37,0-.73,0-1.1,0Z"/>
</svg>