<?xml version="1.0" encoding="UTF-8"?>
<svg id="Layer_1" data-name="Layer 1" xmlns="http://www.w3.org/2000/svg" viewBox="0 0 199.83 199.83">
  <defs>
    <style>
      .cls-1 {
        fill: #e68344;
      }
    </style>
  </defs>
  <g id="eWDG9I">
    <path class="cls-1" d="m64.52,42.16c2.44.47,4.92.79,7.31,1.43,14.7,3.94,25.86,16.84,27.69,31.91,2.41,19.81-9.93,37.6-29.32,42.31-.35.09-.89.51-.89.78-.06,4.16-.04,8.32-.04,12.61.48.02.9.06,1.31.06,3.73,0,7.45,0,11.18,0,2.77.01,4.15,1.41,4.16,4.18,0,2.42.01,4.84,0,7.25-.01,2.45-1.47,3.91-3.92,3.92-3.77.02-7.53,0-11.3,0-.43,0-.85,0-1.43,0,0,.53,0,.95,0,1.37,0,3.96,0,7.93,0,11.89,0,2.59-1.47,4.04-4.06,4.05-2.46,0-4.92.01-7.37,0-2.49-.01-3.97-1.5-3.98-4.02-.02-3.96,0-7.93,0-11.89,0-.43,0-.85,0-1.41-.56,0-.98,0-1.41,0-3.77,0-7.53.01-11.3,0-2.45-.01-3.92-1.48-3.94-3.92-.02-2.5-.02-5,0-7.49.02-2.45,1.47-3.92,3.92-3.95,3.77-.03,7.53,0,11.3,0,.43,0,.86,0,1.42,0,0-1.46,0-2.79,0-4.13,0-2.58-.07-5.16.03-7.73.05-1.16-.37-1.54-1.42-1.81-8.55-2.2-15.82-6.48-21.22-13.55-6.37-8.34-8.68-17.84-7.45-28.2,1.1-9.26,4.95-17.22,11.79-23.62,5.8-5.42,12.76-8.42,20.56-9.58,1.05-.15,2.1-.32,3.14-.47,1.74,0,3.49,0,5.23,0Zm-2.88,15.78c-12.77-.09-22.58,9.7-22.69,22.65-.11,12.16,10.06,22.37,22.36,22.48,12.52.11,23-9.94,22.84-22.33-.18-14.14-10.26-22.62-22.51-22.8Z"/>
  </g>
  <g id="yhBqGx">
    <path class="cls-1" d="m163.68,153.3c-.97.91-1.93,1.82-2.9,2.73-.24.15-.47.3-.71.46-2.09,1.34-4.08,2.91-6.3,3.98-7.98,3.85-16.29,4.53-24.78,1.92-9.25-2.85-16.13-8.66-20.44-17.29-4.54-9.09-4.91-18.52-1.08-27.96,3.64-8.99,10.11-15.26,19.12-18.85,1.98-.79,4.07-1.28,5.87-1.84.29-9.4.58-18.75.87-28.07-.14.13-.37.35-.59.56-2.32,2.18-4.64,4.37-6.97,6.55-1.25,1.17-2.69,1.98-4.43,2.14-3.25.28-5.96-1.3-7.34-4.26-1.26-2.71-.59-5.99,1.78-8.23,6.79-6.42,13.61-12.82,20.43-19.21,1.81-1.7,3.98-2.51,6.43-1.95,1.19.27,2.28,1,3.42,1.51,6.88,7.32,13.77,14.64,20.65,21.95.1.19.19.39.3.58,1.58,2.73,1.29,6.17-.71,8.38-2.99,3.3-7.65,3.38-10.79.13-2.3-2.38-4.55-4.82-6.82-7.24-.18-.19-.39-.36-.57-.52-.29,9.41-.57,18.78-.86,28.17.02,0,.1.06.19.09.27.08.54.16.82.24,10.8,3.25,18.41,10.14,22.39,20.63,4.03,10.64,2.8,20.96-3.31,30.6-1.07,1.69-2.43,3.2-3.65,4.8Zm-10.49-36.82c-7.39-7.84-19.85-8.22-27.7-.86-7.85,7.36-8.24,19.81-.86,27.69,7.41,7.92,19.85,8.3,27.74.86,7.84-7.4,8.21-19.84.82-27.69Z"/>
  </g>
</svg>