<?xml version="1.0" encoding="UTF-8"?>
<svg id="Layer_1" data-name="Layer 1" xmlns="http://www.w3.org/2000/svg" viewBox="0 0 199.83 199.83">
  <defs>
    <style>
      .cls-1 {
        fill: #e68344;
      }
    </style>
  </defs>
  <path class="cls-1" d="m181.18,149.75v1.45c-2.62-.48-5.23-.94-7.78-1.39-5.84,15.69-16.73,24.67-33.71,24.38-14.53-.23-24.51-8.04-30.71-21.28,3.55-1,6.94-2,10.3-2.97,5.13,9.56,12.88,14.63,23.67,13.62,9.85-.94,16.4-6.65,19.99-16.11-2.52-.55-4.84-1.1-7.56-1.71.84-.77,1.32-1.45,2-1.87,3.62-2.39,7.3-4.75,10.95-7.07,2.32-1.49,3.55-1.23,5.1,1.07,2.61,3.94,5.16,7.91,7.75,11.88Z"/>
  <path class="cls-1" d="m174.95,128.05c-3.26.94-6.33,1.84-9.43,2.58-.45.13-1.36-.48-1.65-1-5.91-10.98-18.82-15.47-30.19-10.36-5.97,2.65-10.72,7.97-12.5,14.17,2.29.52,4.58,1.03,7.36,1.65-.9.87-1.45,1.65-2.19,2.13-3.71,2.45-7.49,4.84-11.27,7.23-1.58,1.03-3.07.81-4.07-.71-2.68-4-5.26-8.07-7.85-12.17-.32-.48-.39-1.1-.68-2.1,2.94.61,5.46,1.13,7.98,1.65,6.39-16.79,18.31-25.8,36.45-24.25,13.27,1.1,22.5,8.81,28.03,21.18Z"/>
  <path class="cls-1" d="m169.62,108.74c-2.68-1.42-5.33-3.03-8.17-4.29-2.81-1.23-5.78-2.07-8.88-3.17.03-19.66-7.65-35.97-23.64-48.01-12.11-9.11-25.93-12.79-40.97-11.01-32.97,3.87-55.47,33.71-50.89,65.71,4.68,32.32,33.65,53.69,65.74,49.37,3.36,5.59,6.52,10.85,9.62,16.01-22.44,6.46-56.86.94-78.62-28.16-21.7-29.03-19.53-67.74,2.84-94.15,24.02-28.35,63.61-34.65,94.44-17.5,32.55,18.11,42.23,52.57,38.52,75.2Z"/>
</svg>