<?xml version="1.0" encoding="UTF-8"?>
<svg id="Layer_1" data-name="Layer 1" xmlns="http://www.w3.org/2000/svg" viewBox="0 0 199.83 199.83">
  <defs>
    <style>
      .cls-1 {
        fill: #e68344;
      }
    </style>
  </defs>
  <path class="cls-1" d="m122.26,21.91c1.23,1.38,1.54,2.98,1.54,4.83-.07,19.54-.05,39.08-.06,58.62,0,2.42,0,2.42,2.34,2.42,11.83,0,23.66,0,35.5,0,3.06,0,4.3,1.27,4.3,4.37,0,31.07.01,62.13.02,93.2,0,3.71-.8,4.52-4.54,4.52-42.77,0-85.54,0-128.31,0-.68,0-1.36.04-2.03-.02-1.89-.17-3.07-1.47-3.07-3.37,0-25.64,0-51.29,0-76.93,0-2.4,1.3-3.66,3.75-3.66,12.88,0,25.76,0,38.64,0,3.19,0,2.72.23,2.73-2.8.01-25.7.02-51.41-.01-77.11,0-1.72.29-3.15,1.87-4.08h47.35Zm-43.28,84.17c0,24.54,0,49.08,0,73.62,0,4.47,0,4.43,4.49,4.3,1.16-.03,1.47-.43,1.45-1.52-.05-3.39-.03-6.78-.02-10.17,0-1.94,1.18-3.43,3.07-3.46,6.9-.08,13.81-.08,20.71,0,1.44.02,2.64.62,2.93,2.45.44,2.76.22,5.52.24,8.28.03,4.59-.03,4.55,4.63,4.41,1.03-.03,1.42-.28,1.38-1.35-.08-1.78-.04-3.58-.04-5.36,0-49.14-.02-98.28.04-147.42,0-1.75-.61-2.01-2.09-2.01-11.59.03-23.18.03-34.77-.03-1.58,0-2.08.39-2.08,2.05.06,25.4.04,50.81.04,76.21Zm81.03,32.89h.02c0-14.3-.03-28.6.04-42.89,0-1.77-.37-2.39-2.24-2.38-10.6.09-21.19.07-31.79.03-1.73,0-2.33.58-2.33,2.37.05,27.73.04,55.46.04,83.2,0,4.8-.01,4.76,4.77,4.7,1.14-.02,1.5-.35,1.47-1.47-.07-2.34-.05-4.68-.01-7.02.04-2.28,1.45-3.72,3.67-3.73,5.48-.02,10.97-.02,16.45.02,2.26.02,3.8,1.53,3.9,3.8.07,1.41.02,2.83.02,4.25-.02,4.19-.02,4.12,4.12,4.17,1.54.02,1.9-.46,1.89-1.96-.06-14.36-.04-28.72-.04-43.08Zm-86.94,8.91c0-11.22,0-22.44,0-33.66,0-2.39,0-2.41-2.45-2.41-11.59,0-23.17.04-34.76-.04-1.64-.01-2.05.39-2.04,2.03.06,21.95.04,43.89.04,65.84,0,4.44,0,4.39,4.45,4.36,1.3,0,1.53-.51,1.51-1.63-.05-3.2-.04-6.41.02-9.62.05-2.55,1.52-3.95,4.02-3.95,6.29,0,12.57,0,18.86,0,2.9,0,4.25,1.35,4.29,4.3.03,2.22.02,4.44.02,6.66,0,4.26,0,4.19,4.25,4.24,1.54.02,1.83-.53,1.82-1.91-.05-11.4-.03-22.81-.03-34.21Zm25.05,36.1c2.09,0,4.18-.04,6.26.02,1,.03,1.49-.33,1.48-1.35-.02-2.21-.03-4.42-.01-6.63,0-1.06-.56-1.32-1.52-1.31-4.05.03-8.11.05-12.16,0-1.07-.01-1.39.4-1.36,1.41.05,2.21.06,4.42,0,6.63-.03.96.26,1.3,1.24,1.26,2.02-.07,4.05-.02,6.08-.02Zm-44.84-9.26s0,0,0,0c-2.03,0-4.06.05-6.08-.02-.97-.04-1.32.29-1.31,1.24.05,2.33.06,4.67.06,7,0,.83.46,1.03,1.18,1.03,4.24,0,8.48-.02,12.72.01.8,0,1.09-.28,1.08-1.07-.03-2.27-.05-4.55,0-6.82.02-1.03-.34-1.41-1.38-1.39-2.09.06-4.18.02-6.27.02Zm88.51,9.24s0,.02,0,.03c.55,0,1.1,0,1.66,0,4.66,0,4.63,0,4.57-4.76-.01-1.11-.34-1.54-1.48-1.5-1.96.07-3.92.03-5.89.02q-4.82-.01-4.7,4.82c0,.12.01.25,0,.37-.1.81.27,1.07,1.06,1.04,1.59-.05,3.19-.01,4.78-.01Z"/>
  <path class="cls-1" d="m98.17,55.03c-3.88,0-7.76-.05-11.64.03-1.29.02-1.66-.38-1.66-1.67,0-4.41-.05-4.41,4.39-4.42,6.9,0,13.79.03,20.69-.03,1.39-.01,1.93.33,1.95,1.84.07,4.23.14,4.24-3.95,4.26-3.26.02-6.53,0-9.79,0h0Z"/>
  <path class="cls-1" d="m98.35,72.8c3.94,0,7.88.05,11.82-.03,1.31-.03,1.67.43,1.7,1.69.12,4.36.16,4.36-4.22,4.36-6.96,0-13.91-.03-20.87.02-1.35,0-1.94-.21-1.91-1.79.09-4.22,0-4.23,4.25-4.23,3.08,0,6.16,0,9.23,0,0,0,0-.02,0-.03Z"/>
  <path class="cls-1" d="m98.42,61.15c3.94,0,7.88.05,11.81-.03,1.31-.03,1.66.43,1.67,1.69.03,4.22.08,4.22-4.14,4.21-7.08,0-14.15-.04-21.23.02-1.27,0-1.67-.3-1.66-1.62.04-4.24-.02-4.25,4.13-4.27,3.14-.01,6.28,0,9.41,0Z"/>
  <path class="cls-1" d="m98.34,42.98c-4,0-8-.03-11.99.02-1.12.01-1.45-.35-1.47-1.48-.09-4.44-.13-4.45,4.31-4.45,6.64,0,13.28,0,19.93,0,2.51,0,2.72.22,2.77,2.73q.06,3.19-3.21,3.19c-3.44,0-6.89,0-10.33,0,0,0,0,0,0,0Z"/>
  <path class="cls-1" d="m105.66,132.94c1.66,0,3.39-.28,4.97.06,2.52.54.78,2.72,1.18,4.11.21.75.43,1.92-1.15,1.9-3.2-.04-6.4-.02-9.6.02-1.02.01-1.34-.37-1.37-1.4-.14-4.68-.17-4.68,4.5-4.69.49,0,.99,0,1.48,0Z"/>
  <path class="cls-1" d="m90.7,139.06c-1.48,0-2.95-.03-4.43.01-1.01.03-1.36-.35-1.39-1.4-.14-4.72-.17-4.72,4.52-4.73,1.97,0,3.94.05,5.9,0,.98-.03,1.4.2,1.43,1.31.17,4.94.21,4.94-4.75,4.8-.43-.01-.86,0-1.29,0,0,0,0,.01,0,.02Z"/>
  <path class="cls-1" d="m105.72,151c-1.6,0-3.19-.03-4.79.01-.96.03-1.21-.37-1.25-1.3-.18-4.6-.21-4.6,4.39-4.6,2.09,0,4.18.05,6.26,0,1.04-.02,1.5.19,1.54,1.4.13,4.5.18,4.5-4.31,4.5-.61,0-1.23,0-1.84,0h0Z"/>
  <path class="cls-1" d="m105.77,156.97c1.6,0,3.21.03,4.81-.01.94-.03,1.25.31,1.29,1.28.22,4.53.25,4.54-4.33,4.56-2.16.01-4.31-.02-6.47.01-1.01.02-1.36-.35-1.39-1.4-.13-4.47-.17-4.46,4.24-4.46.62,0,1.23,0,1.85,0,0,0,0,.01,0,.02Z"/>
  <path class="cls-1" d="m105.87,121.07c.68,0,1.35,0,2.03,0,4.41,0,4.39-.01,3.93,4.47-.11,1.04-.65,1.36-1.58,1.36-3.14,0-6.32.33-9.4-.08-2.46-.33-.65-2.7-1.1-4.07-.24-.75-.29-1.77,1.14-1.7,1.66.07,3.32.02,4.98.02h0Z"/>
  <path class="cls-1" d="m105.64,102.91c-1.6,0-3.2-.03-4.79.01-.88.02-1.12-.32-1.16-1.18-.26-4.8-.28-4.8,4.53-4.8,1.66,0,3.32-.03,4.98-.03,1.84,0,2.57.7,2.65,2.51q.15,3.52-3.43,3.51c-.92,0-1.84,0-2.77,0h0Z"/>
  <path class="cls-1" d="m105.7,114.84c-.55,0-1.11,0-1.66,0-4.85.02-4.84.02-4.35-4.91.08-.77.3-1.09,1.1-1.08,3.02.04,6.04.02,9.06.05,1.24.02,1.86.68,1.98,1.95.36,3.98.38,3.98-3.54,3.98-.86,0-1.73,0-2.59,0h0Z"/>
  <path class="cls-1" d="m105.65,90.74c-1.54,0-3.08-.05-4.62.02-1.06.05-1.32-.37-1.34-1.39-.09-4.52-.12-4.52,4.4-4.54,1.48,0,2.96-.06,4.44.01.81.04,1.85-.47,2.4.38,1,1.54,1.1,3.33.8,5.1-.09.56-.68.42-1.09.42-1.66.01-3.33,0-4.99,0h0Z"/>
  <path class="cls-1" d="m90.9,126.94c-.55,0-1.11,0-1.66,0-4.65,0-4.63,0-4.34-4.65.05-.83.24-1.22,1.15-1.21,3.2.03,6.41.02,9.62,0,.81,0,1.12.34,1.04,1.12,0,.06,0,.12,0,.18q.23,4.58-4.33,4.57c-.49,0-.99,0-1.48,0Z"/>
  <path class="cls-1" d="m90.79,151.01c-1.53,0-3.07-.02-4.6,0-.92.02-1.25-.35-1.3-1.3-.26-4.58-.29-4.59,4.23-4.6,2.03,0,4.05.04,6.08-.01,1.04-.03,1.51.21,1.54,1.41.12,4.46.17,4.46-4.28,4.5-.55,0-1.1,0-1.66,0Z"/>
  <path class="cls-1" d="m90.82,114.83c-1.41,0-2.82,0-4.23,0-.37,0-.91.13-1.07-.06-1.27-1.46-.37-3.21-.55-4.82-.11-.96.52-1.09,1.28-1.09,3.07,0,6.13,0,9.2,0,.12,0,.28-.04.36.02,1.86,1.2.53,3.04.88,4.55.17.77.05,1.45-1.08,1.41-1.59-.06-3.19-.02-4.78-.01Z"/>
  <path class="cls-1" d="m90.64,162.82c-1.47,0-2.95-.07-4.41.02-1.49.1-1.55-.92-1.26-1.77.46-1.35-1.44-3.69,1.14-4.01,3.08-.38,6.27-.36,9.36-.01,2.63.3.75,2.65,1.19,4.01.27.82.28,1.87-1.24,1.78-1.59-.1-3.19-.02-4.78-.02Z"/>
  <path class="cls-1" d="m90.8,102.9c-1.41,0-2.83,0-4.24,0-.31,0-.71.11-.91-.04-1.67-1.33-.37-3.14-.72-4.7-.18-.81.19-1.24,1.09-1.24,3.2.02,6.44-.33,9.58.12,2.37.34.64,2.72,1.05,4.12.2.69.43,1.81-1.06,1.75-1.6-.06-3.2-.01-4.8-.01Z"/>
  <path class="cls-1" d="m91,90.71c-1.66,0-3.38.28-4.97-.07-2.37-.52-.74-2.58-1.07-3.9-.17-.68-.6-1.95,1.06-1.93,3.2.05,6.39.02,9.59.02.06,0,.14-.02.18.01,1.98,1.25.43,3.18.9,4.73.24.82-.17,1.21-1.08,1.18-1.53-.06-3.07-.02-4.61-.02,0-.01,0-.02,0-.03Z"/>
  <path class="cls-1" d="m154.02,133.13c0,2.52-.03,5.05.02,7.57.02,1.02-.29,1.37-1.36,1.4-4.69.14-4.71.18-4.7-4.5,0-4,.08-8,.05-12-.01-1.21.4-1.56,1.59-1.57,4.38-.03,4.38-.07,4.37,4.29,0,1.6,0,3.2,0,4.8.01,0,.02,0,.03,0Z"/>
  <path class="cls-1" d="m148.05,157.06c0-2.52.03-5.04-.01-7.56-.02-1,.29-1.37,1.36-1.41,4.64-.19,4.63-.22,4.62,4.43,0,3.87-.07,7.75.04,11.62.04,1.45-.45,1.71-1.79,1.7-4.3-.06-4.3,0-4.29-4.35,0-1.48,0-2.95,0-4.43.02,0,.05,0,.07,0Z"/>
  <path class="cls-1" d="m138.92,133.16c0-2.65.02-5.29-.01-7.94-.01-.84.21-1.15,1.12-1.2,4.81-.26,4.81-.29,4.81,4.56,0,4-.05,8,.03,12,.02,1.22-.34,1.53-1.54,1.54-4.4,0-4.4.05-4.41-4.35,0-1.54,0-3.08,0-4.62Z"/>
  <path class="cls-1" d="m135.94,132.96c0,2.64-.07,5.29.03,7.93.05,1.43-.91,1.44-1.65,1.16-1.42-.53-4.02,1.48-4.21-1.12-.38-5.26-.1-10.57-.11-15.86,0-.67.17-1.07.92-1.02.12,0,.25,0,.37,0q4.68-.23,4.67,4.48c0,1.48,0,2.95,0,4.43h-.01Z"/>
  <path class="cls-1" d="m144.82,109.13c0,2.46-.04,4.91.02,7.37.02.96-.13,1.39-1.26,1.43-4.65.16-4.65.2-4.65-4.43,0-3.99.04-7.99-.03-11.98-.02-1.19.34-1.56,1.54-1.58,4.41-.07,4.41-.11,4.41,4.21,0,1.66,0,3.32,0,4.98-.01,0-.02,0-.03,0Z"/>
  <path class="cls-1" d="m138.92,156.78c0-2.46.03-4.92-.01-7.38-.02-.9.19-1.27,1.2-1.33,4.76-.26,4.76-.29,4.75,4.47,0,3.88-.07,7.75,0,11.63.02,1.22-.22,1.69-1.58,1.69-4.34,0-4.34.06-4.36-4.28,0-1.6,0-3.2,0-4.8Z"/>
  <path class="cls-1" d="m135.94,157.02c0,2.53.21,5.08-.06,7.58-.27,2.48-2.38.89-3.61,1.14-.75.16-2.33.88-2.3-1.21.06-4.99.03-9.99-.02-14.98-.01-1.11.35-1.45,1.48-1.48,4.52-.12,4.52-.16,4.52,4.33,0,1.54,0,3.08,0,4.62h-.01Z"/>
  <path class="cls-1" d="m135.95,109.03c0,2.53-.03,5.05.02,7.58.02.94-.26,1.24-1.25,1.28-4.72.19-4.72.22-4.71-4.47,0-4,.02-8.01-.05-12.01-.02-1.13.33-1.45,1.46-1.47,4.54-.07,4.54-.11,4.54,4.47,0,1.54,0,3.08,0,4.62Z"/>
  <path class="cls-1" d="m148.06,109.05c0-2.52.03-5.04-.01-7.56-.02-1.06.27-1.57,1.44-1.53,5.29.16,4.4-.77,4.46,4.27.05,3.93-.01,7.86.05,11.79.02,1.28-.28,1.83-1.73,1.86-4.25.08-4.25.15-4.25-4.04,0-1.6,0-3.19,0-4.79h.04Z"/>
  <path class="cls-1" d="m45.85,139.03c-1.6,0-3.2-.03-4.79.01-.96.02-1.23-.36-1.27-1.31-.21-4.8-.24-4.8,4.45-4.8,2.15,0,4.3.03,6.45-.01.95-.02,1.24.33,1.29,1.28.25,4.76.28,4.76-4.47,4.86-.55.01-1.11,0-1.66,0,0-.01,0-.02,0-.03Z"/>
  <path class="cls-1" d="m61.11,132.96c1.42,0,2.84.07,4.24-.02,1.18-.08,1.62.3,1.66,1.52.17,4.6.21,4.59-4.35,4.59-2.03,0-4.06,0-6.09.05-1.1.03-1.63-.23-1.66-1.53-.1-4.65-.15-4.65,4.53-4.64.55,0,1.11,0,1.66,0v.03Z"/>
  <path class="cls-1" d="m45.91,151.02c-1.41,0-2.82,0-4.23,0-.37,0-.85.14-1.09-.04-1.71-1.28-.37-3.11-.75-4.65-.2-.8.19-1.23,1.1-1.22,3.31.04,6.63.02,9.94.02.06,0,.14-.02.18,0,1.89,1.27.48,3.17.89,4.73.21.81-.14,1.22-1.07,1.18-1.65-.07-3.31-.02-4.97-.02Z"/>
  <path class="cls-1" d="m45.96,126.91c-1.54,0-3.08-.03-4.61,0-1.19.03-1.54-.48-1.55-1.66-.03-4.17-.08-4.17,4.07-4.18,2.21,0,4.43.04,6.64-.03,1.07-.04,1.48.19,1.49,1.4.01,4.48.07,4.48-4.37,4.5-.55,0-1.11,0-1.66,0,0,0,0-.02,0-.02Z"/>
  <path class="cls-1" d="m45.8,162.83c-.55,0-1.11,0-1.66,0-4.46,0-4.43,0-4.33-4.48.02-1,.27-1.43,1.34-1.41,3.19.05,6.39.04,9.58,0,.97-.01,1.21.33,1.24,1.28.14,4.63.17,4.63-4.52,4.6-.55,0-1.11,0-1.66,0Z"/>
  <path class="cls-1" d="m60.97,126.95c-.61,0-1.23,0-1.84,0-4.44.02-4.86-.51-4.19-5.03.09-.63.31-.84.91-.84,3.32.01,6.63,0,9.95,0,.06,0,.13-.02.18.01,1.99,1.16.62,3.03.96,4.55.19.87-.14,1.36-1.18,1.31-1.59-.08-3.19-.02-4.79-.02v.02Z"/>
  <path class="cls-1" d="m61.07,151c-1.66,0-3.33-.02-4.99.01-.76.02-1.17-.24-1.12-1.05,0-.12,0-.25,0-.37q-.22-4.49,4.26-4.48c2.09,0,4.19.05,6.28,0,1.01-.02,1.39.35,1.5,1.36.44,4.4.41,4.47-3.89,4.53-.68,0-1.35,0-2.03,0,0,0,0,0,0,0Z"/>
  <path class="cls-1" d="m61.01,162.82c-1.54,0-3.08-.06-4.62.02-1.16.06-1.43-.4-1.46-1.5-.11-4.4-.15-4.4,4.21-4.39,2.09,0,4.19.06,6.28,0,1.1-.03,1.49.38,1.57,1.48.3,4.35.33,4.35-3.95,4.36-.68,0-1.36,0-2.03,0,0,0,0,0,0,0Z"/>
</svg>