<?xml version="1.0" encoding="UTF-8"?>
<svg id="Layer_1" data-name="Layer 1" xmlns="http://www.w3.org/2000/svg" viewBox="0 0 199.83 199.83">
  <defs>
    <style>
      .cls-1 {
        fill: #e68344;
      }
    </style>
  </defs>
  <path class="cls-1" d="m180.35,169.67c-1.45-1.45-3.06-1.45-3.84-1.45h-2.13v-.65l5.13-23.37s0-.01,0-.02v-17.99c0-3.95-1.29-8.03-3.41-10.87l-23.93-33.38s-.02-.04-.02-.06v-32.65c0-10.95-8.83-19.52-20.1-19.52H40.79c-1.4,0-2.97.05-4.5.05-9.83,0-17.82,7.12-17.82,16.63v7.41c0,.77,0,2.38,1.45,3.83l.34.34.43.22c1.63.83,2.68.89,3.62.89h6.9c2.92,0,5.28-2.36,5.28-5.28h0c0-2.92-2.36-5.28-5.28-5.28h-4.38c-.06,0-.1-.05-.1-.1v-2.03c0-1.82.67-3.42,1.97-4.72,1.34-1.32,1.87-1.97,7.58-1.97,1.84,0,3.38.65,4.71,1.96,1.69,1.69,2.55,3.28,2.55,4.73v117.99c0,.78,0,2.39,1.44,3.84,1.45,1.45,3.07,1.45,3.84,1.45h79.16c.09,0,.13.1.07.17-1.29,1.4-1.29,2.92-1.29,3.66v10.54c0,.06.05.1.1.1h10.92c.06,0,.1-.05.1-.1v-4.58c0-.06.05-.1.1-.1h32.57c.06,0,.1.05.1.1v4.58c0,.06.05.1.1.1h10.94c.06,0,.1-.05.1-.1v-10.54c0-.77,0-2.38-1.45-3.83Zm-31.01-55.77l4.36,8.86s.01.03.01.04v6.25c0,1.14-1.15,2.28-2.27,2.28s-2.29-1.14-2.29-2.28v-15.1c0-.11.15-.14.19-.04Zm-22.57-5.95v21.51s0,.03,0,.04c-.97,2.05-3.42,8.05-3.42,16.07,0,2.36,0,5.57,1.27,8.87.35,1.52.87,3.04,1.52,4.52.03.07-.02.14-.09.14H54.2c-.06,0-.1-.05-.1-.1V46.39c0-2.08-.37-4.09-1.1-5.99-.03-.07.02-.13.09-.13h78.96c2.62,0,4.72.83,6.43,2.53,1.71,1.71,2.53,3.81,2.53,6.43v46.02c0,.06-.05.11-.11.1-.47-.06-.96-.09-1.44-.09-7.11,0-12.69,5.57-12.69,12.69Zm45.18,35.35l-5.69,23.36s0,.02,0,.02v4.44c0,.06-.05.1-.1.1h-24.3c-.06,0-.1-.05-.1-.1v-3.88c0-.57-.57-1.71-1.15-1.71,0,0-1.71-1.15-3.42-3.43-1.71-2.27-3.98-5.12-5.13-9.69-.57-2.27-.57-4.55-.57-6.84,0-3.99.57-6.83,1.72-9.12.57-1.14.57-2.28,1.12-2.85.12-.17.24-.2.57-.57.38-.29.58-.57.58-1.13v-23.38c0-1.14.57-2.28,1.71-3.42,1.14-1.13,2.28-1.13,3.42-1.13s2.28.55,3.39,1.12c.01,0,.02.01.03.02,1.14,1.14,1.71,2.27,1.71,3.41v20.11c0,2.96,1.57,5.77,4.23,7.07,5.17,2.52,10.6-1.79,10.6-6.08v-7.41c0-.57-.03-.53-.57-1.14l-10.82-15.15s-.02-.04-.02-.06v-14.24c0-.1.13-.14.18-.06l20.35,28.37c1.14,1.71,2.27,4.55,2.27,6.83v16.52s0,.02,0,.02Z"/>
  <path class="cls-1" d="m116.96,62.92c0,2.24-2.05,4.28-4.29,4.28h-29.64c-2.24,0-4.29-2.04-4.29-4.28s2.05-4.28,4.29-4.28h29.64c2.24,0,4.29,2.04,4.29,4.28Z"/>
  <path class="cls-1" d="m131.17,84.48c-.25,2.04-2.17,3.8-4.25,3.8h-58.71c-2.24,0-4.28-2.03-4.28-4.26s2.04-4.29,4.28-4.29h58.71c1.7,0,3.17.73,3.93,1.96.53.86.64,1.85.32,2.79Z"/>
  <path class="cls-1" d="m123.76,98.72c-.25,2.05-2.16,3.82-4.25,3.82h-51.3c-2.24,0-4.28-2.04-4.28-4.28s2.04-4.28,4.28-4.28h51.3c1.71,0,3.18.73,3.93,1.95.53.86.64,1.85.32,2.79Z"/>
  <path class="cls-1" d="m99.24,112.98c-.25,2.04-2.16,3.81-4.24,3.81h-26.79c-2.24,0-4.28-2.04-4.28-4.27s2.04-4.29,4.28-4.29h26.79c1.7,0,3.17.73,3.92,1.95.54.86.64,1.86.32,2.8Z"/>
</svg>