<?xml version="1.0" encoding="UTF-8"?>
<svg id="Layer_1" data-name="Layer 1" xmlns="http://www.w3.org/2000/svg" viewBox="0 0 199.83 199.83">
  <defs>
    <style>
      .cls-1 {
        fill: #e68344;
      }
    </style>
  </defs>
  <path class="cls-1" d="m185.4,66.97s-.03-.04-.03-.07c0-.01.01-.01.01-.03-.01-1.24-.05-2.49-.04-3.73,0-1.65.05-3.28.07-4.92,0-1.26-.03-2.51-.05-3.77v-1.47s.01-.05.01-.09c0-.37,0-.73-.01-1.1-.1-.08-.1-.17-.01-.26-.03-.25-.07-.5-.09-.75.01-.03.01-.05-.01-.08-.01-.09-.03-.18-.04-.26-.01-.04-.01-.07-.03-.09-.07-.22-.14-.43-.21-.65-.01-.03-.04-.07-.05-.09-.42-1.1-1.18-1.96-2.13-2.6-.93-.63-1.99-.97-3.14-.95h-16.49c-32.99,0-65.99-.01-98.97-.01h-12.02c-10.69,0-21.39.01-32.07.01-1.29,0-2.46.33-3.48,1.14-.29.24-.63.44-.86.72-.45.5-.8,1.07-1.06,1.69-.04.09-.08.2-.12.29-.24.75-.35,1.5-.31,2.29.03.47.01.94.01,1.41v71.69c0,8.88,0,17.76-.01,26.66,0,.98.16,1.92.59,2.83.56,1.2,1.45,2.08,2.67,2.62.96.42,1.95.6,3.01.6h149.12c3.24,0,6.49,0,9.73-.01.31,0,.64,0,.96-.04,1.05-.16,1.97-.61,2.84-1.19.42-.29.84-.6,1.09-1.07.01-.03.04-.05.05-.09.07-.13.13-.26.21-.39.03-.04.05-.09.08-.14.35-.52.46-1.12.63-1.71-.03-.1-.07-.21.07-.27.03-.13.04-.26.07-.38,0-.09.01-.18.01-.26,0-.13.01-.25.01-.38v-79.09c0-.48,0-.97.01-1.45,0-.99.01-1.98.03-2.97-.01-.18-.01-.37-.01-.55v-1.01Zm-9.39,12.94c-.14,20.57-.01,41.16-.05,61.73,0,1.3-.01,2.59,0,3.88,0,.37.04.75.07,1.12.04,1.05-.29,2-.86,2.85-.2.3-.54.52-.82.77-.69.58-1.5.93-2.37,1.16-.3.08-.62.13-.93.16-.52.05-1.03.09-1.54.09H30.31c-.81,0-1.61-.12-2.38-.31-.58-.14-1.1-.47-1.6-.81-.81-.56-1.23-1.37-1.57-2.25-.24-.63-.34-1.28-.37-1.95,0-.12.05-.26-.1-.37-.05-.03-.07-.16-.07-.25-.01-.22,0-.46,0-.68,0-19.42-.01-38.86.01-58.28,0-1.14.12-2.28.05-3.4-.16-3.54-.03-7.09-.07-10.62-.01-.6.01-1.2.16-1.81.04-.18.08-.41-.12-.58-.07-.07-.04-.24-.04-.35-.01-1.22,0-2.43,0-3.65,0-2.84,0-5.69-.01-8.53,0-.34.08-.65.2-.97.22-.55.38-1.11.6-1.65.59-1.47,1.69-2.33,3.19-2.69.38-.09.78-.1,1.16-.1,6.59,0,13.17.01,19.75.01h5.52c.46-.01.92-.08,1.36-.08.33,0,.64.05.95.07.86.01,1.74.01,2.6.01h80.83c9.85,0,19.71-.01,29.56-.01.47,0,.94.01,1.41-.01.64-.03,1.19.24,1.73.51.8.41,1.41,1.02,1.99,1.7.47.58.64,1.24.77,1.92.2,1.07.08,2.16.09,3.23.03,2.03.01,4.04-.01,6.07-.01,1.02.05,2.05.03,3.07-.01,1.02-.01,2.04-.01,3.06,0,.13.04.26.05.39.01.09.05.2.03.27-.16.71.08,1.41.01,2.12-.05.43-.12.88-.08,1.31.13,1.27.07,2.54.05,3.82Z"/>
  <path class="cls-1" d="m125.43,142.83c-.47.03-.95.07-1.44.07-8.24,0-16.47.01-24.71,0-1.22,0-2.43-.08-3.65-.07-14.09.16-28.16.03-42.25.07-1.48.01-2.96.01-4.43.01-.26,0-.54-.07-.8-.1-.1-.34-.04-.64-.05-.94-.01-.14.08-.22.22-.24.29-.03.58-.08.86-.08h74.78c.37,0,.73-.01,1.1.01.17,0,.34.07.54.09-.05.42.09.81-.17,1.18Z"/>
  <path class="cls-1" d="m125.73,133.18c0,.22-.07.45-.07.67-.01.21-.16.25-.3.29-.08.03-.18,0-.27,0-5.77,0-11.54.01-17.3.01-17.51-.01-35.03-.01-52.54-.01h-6.62c-.16,0-.33-.03-.51-.04v-1.28c.16-.01.31-.03.48-.03.75-.01,1.49-.01,2.24-.01h73.45c.35,0,.71,0,1.05.01.29.01.39.12.39.39Z"/>
  <path class="cls-1" d="m45.07,126.99v6.29c0,.2-.09.31-.3.3h-.18c-3.81,0-7.61.01-11.43,0-.43,0-.85-.09-1.35-.14v-6.8c.14-.03.33-.08.51-.08.42-.01.82,0,1.24,0h10.59c.17,0,.34,0,.5.01.41.01.42.04.42.42Z"/>
  <path class="cls-1" d="m125.57,117.42c0,.35-.03.38-.41.38-.3.01-.6.01-.92.01-6.15-.01-12.3-.01-18.46-.01h-55.93c-.41,0-.82.01-1.23,0-.17-.01-.34-.05-.54-.09v-1.31c.12-.01.24-.04.35-.04.26-.01.51-.01.77-.01h75.21c.26,0,.52.01.78.01.17,0,.29.05.29.26.03.26.07.54.07.8Z"/>
  <path class="cls-1" d="m45.08,110.42c0,.05-.01.12-.01.18v5.93c0,.55,0,.56-.54.56h-12.37c-.31-.01-.34-.05-.34-.35v-6.5c.25-.04.47-.09.68-.09h12.33c.16.01.24.1.25.27Z"/>
  <path class="cls-1" d="m77.15,101.37v1.03c0,.2-.1.27-.29.27-.17-.01-.33-.01-.5-.01-9.16,0-18.31,0-27.47.01-.71,0-.76-.08-.75-.75v-.46c.18-.04.35-.09.52-.1.55-.01,1.1,0,1.65,0h26.83Z"/>
  <path class="cls-1" d="m44.57,91.32h-6.12s-5.94.01-5.94.01c-.1,0-.21,0-.33-.01-.34-.01-.37-.04-.37-.37v-6.24c-.01-.22.1-.3.3-.31h12.1c.99,0,.85-.05.85.86v4.88c0,.17.03.34.05.5.08.5-.07.68-.55.68Z"/>
  <path class="cls-1" d="m77.15,90.08v1.03c-.01.14-.09.22-.24.22h-28.23c-.18,0-.37-.01-.6-.03v-1.2c.13-.01.29-.04.46-.04.76-.01,1.52-.01,2.28-.01h25.39c.3,0,.6.01.94.03Z"/>
  <path class="cls-1" d="m125.6,90.15v.78c-.01.3-.08.37-.38.39-.09.01-.18.01-.27.01h-28.28c-.03-.35-.04-.67-.07-.98-.01-.2.08-.29.26-.29.24-.01.46-.03.69-.01h26.9c.25,0,.48,0,.73.01.14.01.29.05.41.08Z"/>
  <path class="cls-1" d="m125.58,101.51v.65c.01.27-.21.5-.51.5-.46.01-.92.01-1.37.01-8.83,0-17.66,0-26.49-.01-.55,0-.59.12-.62-.59-.01-.81.01-.68.69-.71.62-.03,1.22,0,1.83,0h25.48c.33,0,.67-.07.98.14Z"/>
  <path class="cls-1" d="m93.5,102.64c-.17.04-.34.09-.51.1-1.03,0-2.07,0-3.1-.01-.47,0-.94-.05-1.41-.05-1.7-.01-3.39-.03-5.09-.01-.98.01-1.97.08-3.02.12-.05-.2-.1-.34-.1-.48-.01-2.12-.01-4.22-.01-6.34,0-.05.01-.12.03-.22.33,0,.64-.01.95-.01h11.73c.47.01.56.16.48.63-.03.24-.03.48-.03.73,0,1.06-.01,2.13,0,3.19.01.62.05,1.23.08,1.86.01.14,0,.3,0,.51Z"/>
  <path class="cls-1" d="m93.46,85.02c-.04.34-.04.69-.04,1.05,0,1.54,0,3.1.01,4.64,0,.22.03.43-.18.61h-12.9c-.04-.17-.09-.3-.09-.44-.01-2.04-.01-4.08-.01-6.12,0-.31.04-.34.38-.35h12.02c.14,0,.3-.01.44.03.34.08.41.24.37.59Z"/>
  <path class="cls-1" d="m154.48,59.84v10.32c-.01.43-.04.46-.47.46H53.45c-.28,0-.54.05-.81.07-.16.01-.3.03-.46.01-1.37-.17-2.76-.05-4.15-.08-2.17-.01-4.36,0-6.53,0-.08,0-.16-.01-.27-.03v-10.63c0-.17-.01-.45.08-.5.2-.13.46-.21.73-.14.41.12.82.18,1.26.14.41-.03.81-.03,1.22-.09.68-.13,1.36-.05,2.04-.05.55-.01,1.1-.05,1.65-.08.2-.01.41-.05.59-.01.52.1,1.05.1,1.57,0,.25-.04.51.04.77.04.5.01.99,0,1.49,0,.13,0,.27-.05.41-.05,1.05,0,2.11-.07,3.15.01.85.07,1.69.07,2.54.07.2,0,.38-.09.58-.09.43-.03.86-.03,1.31-.03.05,0,.1.04.17.04.69.03,1.4.13,2.08.07,1.63-.14,3.26-.07,4.88-.07h83.42c1.05,0,2.09.07,3.14.1.18.13.18.33.18.52Z"/>
  <path class="cls-1" d="m160.32,115.47c0,.94-.17,1.86-.39,2.77-.54,2.26-1.75,4.11-3.47,5.64-1.47,1.28-3.15,2.13-5.06,2.52-1.01.21-2.01.31-3.03.25-.92-.08-1.83-.25-2.71-.55-1.22-.43-2.37-1.03-3.39-1.83-1.11-.88-2.08-1.91-2.8-3.14-.68-1.16-1.1-2.42-1.37-3.73-.21-.97-.22-1.94-.14-2.89.09-.9.22-1.81.56-2.66.26-.63.48-1.28.78-1.88.58-1.12,1.36-2.12,2.37-2.9.55-.43,1.09-.88,1.66-1.26.84-.56,1.78-.9,2.73-1.23.71-.24,1.43-.38,2.17-.38.27,0,.55-.07.82-.07,1.27,0,2.49.26,3.68.68,1.86.64,3.44,1.71,4.77,3.14.24.26.47.52.68.8.17.22.3.48.42.75.48,1.01,1.05,1.97,1.39,3.03.09.3.16.62.18.93.07.67.1,1.33.14,2Z"/>
  <path class="cls-1" d="m165.91,139.86c-.14.05-.25.1-.34.12-.34.04-.67.07-.99.09-.63.04-1.24.07-1.87.12-1.06.07-2.12.16-3.17.24-.29.01-.59.01-.88.01-6.28,0-12.54.01-18.82,0-.9,0-1.82-.1-2.72-.16-.16-.01-.31,0-.46-.01-.72-.05-1.43-.12-2.13-.17-.55-.04-1.09-.08-1.63-.1-.46-.03-.48-.05-.47-.51.01-.46.14-.89.25-1.33.21-.77.34-1.56.55-2.32.16-.56.34-1.11.56-1.66.22-.58.44-1.15.73-1.7.46-.85.97-1.69,1.6-2.42.33-.38.69-.71,1.03-1.07.26-.29.47-.63.77-.89.67-.59,1.37-1.15,2.09-1.67.41-.31.52-.25.97.05,1.28.88,2.63,1.61,4.13,2.05,1.32.38,2.66.59,4.03.54.24-.01.46-.03.69-.01.81.04,1.6-.09,2.38-.29,1.87-.44,3.56-1.24,5.11-2.35.4-.29.59-.29.97.03.43.34.86.67,1.3,1.01.89.69,1.65,1.52,2.35,2.39.39.5.81.98,1.19,1.49.37.52.76,1.05.99,1.65.17.41.35.8.51,1.2.35.95.67,1.91.8,2.92.1.72.26,1.43.39,2.15.03.2.05.39.08.63Z"/>
</svg>