<?xml version="1.0" encoding="UTF-8"?>
<svg id="Layer_1" data-name="Layer 1" xmlns="http://www.w3.org/2000/svg" viewBox="0 0 199.83 199.83">
  <defs>
    <style>
      .cls-1 {
        fill: #e68344;
      }
    </style>
  </defs>
  <path class="cls-1" d="m156.37,127.24c-2.69-2.09-5.31-4.11-7.9-6.14-1.67-1.3-2.03-2.88-1.14-4.83.09-.19.16-.38.33-.79-3.49,1.71-6.08.43-8.43-1.93-.68-.68-1.42-1.29-2.3-2.07,1.68-.59,3.21-1.13,4.75-1.69,2.74-.99,5.51-1.91,7.58-4.17,2.17-2.37,2.97-5.19,2.71-8.3-.46-5.59-1.04-11.17-1.57-16.76,0-.1-.08-.2-.16-.41-1.32.32-2.64.62-3.96.96-5.03,1.3-10.04,2.65-15.08,3.89-.86.21-1.03.56-1.03,1.34.03,6.19.01,12.39.01,18.58v.73c-2.48-1.56-4.94-2.88-6.54-5.33-1.3-1.98-.88-4.11-.78-6.27.13-2.69.03-5.39.03-8.18-7.39.4-14.67.79-22,1.19v28.43h8.94c.37,2.28.73,4.46,1.1,6.77-3.44.35-6.72.67-10.09,1.01v26.09c2.89-.13,5.33-1.2,7.17-3.2,1.91-2.07,3.52-4.42,5.26-6.64.11-.14.21-.29.44-.62,1.18,6.92,2.32,13.64,3.49,20.5-4.01.69-7.97,1.45-11.96,2.06-10.06,1.52-19.95.58-29.61-2.49-7.07-2.24-13.58-5.62-19.54-10.07-5.02-3.75-9.45-8.07-13.29-13-4-5.15-7.15-10.81-9.5-16.91-1.98-5.14-3.29-10.46-3.95-15.92-.56-4.69-.62-9.39-.17-14.1.48-5.1,1.58-10.05,3.25-14.86,1.69-4.86,3.94-9.48,6.74-13.81,4.26-6.59,9.5-12.3,15.7-17.11,6.52-5.06,13.72-8.88,21.65-11.16,3.77-1.08,7.69-1.61,11.52-2.47,4.06-.91,8.17-.15,12.25-.46,3.68-.29,7.18.67,10.66,1.52,3.72.91,7.41,2.02,11.03,3.27,6.03,2.08,11.47,5.27,16.56,9.1,6.96,5.24,12.59,11.65,17.01,19.13,3.54,6,6.06,12.44,7.54,19.25,1.56,7.14,1.89,14.36,1.07,21.64-.86,7.63-3.06,14.86-6.35,21.77-.27.57-.59,1.11-.9,1.66-.16.28-.37.54-.55.8Zm-64.02-11.12v-28.95c-7.45-.49-14.82-.97-22.22-1.46-.04.2-.09.35-.08.49.15,3.68.27,7.36.47,11.04.26,4.78.55,9.56.9,14.33.05.67.39,1.51.88,1.9.59.46,1.48.64,2.27.72,5.9.67,11.81,1.29,17.78,1.93Zm-29.15-3.84c.06-.4.1-.58.11-.76,0-8.58-.01-17.15.03-25.73,0-.88-.52-.96-1.07-1.1-4.63-1.17-9.26-2.33-13.89-3.48-1.85-.46-3.7-.9-5.71-1.39-.28,7.02-.53,13.92-.86,20.81-.08,1.75.7,2.95,1.98,3.97,3.28,2.62,7.05,4.31,11,5.55,2.74.85,5.56,1.42,8.41,2.14Zm37.68-32.47c6.84-.37,13.68-.74,20.74-1.12-.44-2.78-.65-5.35-1.28-7.81-.76-2.96-1.7-5.91-2.89-8.72-2.75-6.47-6.2-12.52-11.6-17.21-1.41-1.23-2.93-2.35-4.97-2.71v37.56Zm-8.47-.02v-37.89c-1.15.55-2.17.96-3.1,1.51-3.79,2.25-6.29,5.71-8.55,9.35-3.89,6.26-6.36,13.09-7.96,20.25-.41,1.83-.6,3.7-.92,5.68,6.96.37,13.74.73,20.53,1.09Zm36.77-1.7c5.94-1.68,11.72-3.32,17.64-4.99-3.04-6.19-6.84-11.7-11.74-16.41-4.92-4.73-10.61-8.2-17.22-10.73,6.46,9.91,9.25,20.82,11.32,32.13Zm-54.98-30.95c-.08-.09-.17-.19-.25-.28-1.19.47-2.4.89-3.56,1.42-4.08,1.87-7.66,4.52-10.95,7.52-4.44,4.05-8.39,8.53-11.01,14.01-.48,1.01-.77,2.11-1.18,3.27,5.44,1.43,10.65,2.79,15.92,4.18,3.69-10.08,7.36-20.1,11.03-30.12Zm-.9,74.89c1.23,3.39,2.33,6.64,3.58,9.82,1.75,4.46,4,8.65,7.07,12.39,2.23,2.72,4.84,4.77,8.42,5.34v-26.35c-6.33-.4-12.61-.79-19.08-1.19Zm-28.27-7.19c2.94,6.7,6.61,12.62,11.49,17.77,4.87,5.14,10.54,9.08,17.2,12.03-2.64-7.4-5.17-14.57-7.75-21.72-.48-1.33-1.33-2.41-2.76-2.84-1.91-.57-3.83-1.12-5.74-1.67-4.08-1.17-8.15-2.34-12.43-3.57Z"/>
  <path class="cls-1" d="m152.45,178.66c-5.13-8.77-10.2-17.44-15.31-26.18-4.15,4.84-8.23,9.6-12.31,14.35-1-.34-1.48-.92-1.65-1.99-.93-5.9-1.95-11.79-2.94-17.68-.88-5.27-1.76-10.54-2.64-15.81-1.07-6.41-2.14-12.82-3.21-19.22-.75-4.47-1.49-8.93-2.23-13.4-.04-.25,0-.51,0-.94,18.34,14.84,36.58,29.59,54.96,44.46-6.35,1.74-12.57,3.44-18.88,5.16,4.9,8.48,9.74,16.85,14.65,25.33-3.48,1.97-6.87,3.9-10.44,5.92Z"/>
</svg>