<?xml version="1.0" encoding="UTF-8"?>
<svg id="Layer_1" data-name="Layer 1" xmlns="http://www.w3.org/2000/svg" viewBox="0 0 199.83 199.83">
  <defs>
    <style>
      .cls-1 {
        fill: #fff;
      }

      .cls-2 {
        fill: none;
        stroke: #e68344;
        stroke-miterlimit: 10;
        stroke-width: 2px;
      }

      .cls-3 {
        fill: #e68344;
      }
    </style>
  </defs>
  <g>
    <path class="cls-3" d="m110.44,12.82c.63.21,1.26.42,1.9.63,1.87.62,3.81,1.27,5.73,1.87,1.36.43,2.75.84,4.09,1.24,1.24.37,2.49.74,3.73,1.13,1.64.51,2.06,1.06,1.95,2.55-.26,3.56-.75,7.15-1.19,10.2-.05.37-.3,1.23-1.38,1.3-2.73.18-5.66.35-8.66.4-1.49.03-2.16.66-2.26,2.12-.78,11.37-1.61,22.94-2.41,34.12l-.38,5.3c-.26,3.7-.54,7.4-.81,11.1l-.18,2.48c-.02.25-.05.51-.08.76-.23,1.81-1.37,2.98-2.91,2.98-.69,0-1.42-.25-2.11-.72-.05-.09-.1-.29-.1-.41.28-4.59.6-9.27.9-13.78.13-1.88.25-3.77.38-5.65.49-7.39.98-14.78,1.46-22.17l.63-9.51.27-4.14c.48-7.27.96-14.55,1.44-21.82m-.27-1.14h-.55c-.06.36-.16.71-.18,1.07-.58,8.66-1.15,17.31-1.72,25.97-.7,10.56-1.39,21.12-2.09,31.68-.43,6.48-.88,12.96-1.28,19.44-.03.42.16,1.04.47,1.25.91.64,1.86.93,2.74.93,1.95,0,3.6-1.45,3.9-3.86.03-.27.06-.54.08-.81.33-4.53.66-9.06.99-13.59.94-13.14,1.89-26.28,2.79-39.42.07-.95.34-1.17,1.28-1.19,2.9-.05,5.8-.22,8.7-.41,1.3-.08,2.13-.97,2.31-2.16.5-3.41.95-6.84,1.2-10.27.15-2.05-.67-2.96-2.64-3.58-2.6-.81-5.22-1.55-7.81-2.37-2.74-.87-5.47-1.79-8.2-2.69h0Z"/>
    <path class="cls-3" d="m109.63,182.41c.02-3.59.04-7.18.04-10.77,0-13.23.01-26.45-.02-39.68,0-.99.27-1.46,1.23-1.72,3.46-.92,6.9-1.91,10.43-2.91.03.39.09.74.09,1.08,0,17.77,0,35.54,0,53.31,0,.23-.03.45-.04.68h-11.73Z"/>
    <path class="cls-3" d="m71.24,49.21h32.8c-.18,2.76-.35,5.43-.53,8.09-.41,6.21-.83,12.42-1.24,18.63-.3,4.58-.61,9.16-.89,13.73-.16,2.61.58,3.71,3.07,4.57.81.28,1.66.49,2.51.59,4.12.5,7.16-2.01,7.51-6.37.62-7.79,1.13-15.59,1.69-23.38.38-5.25.77-10.5,1.16-15.89.5-.03.94-.07,1.37-.07,7.41,0,14.82-.09,22.22.03,7.78.13,15.18,5.23,17.66,13.03.95,2.99,1.35,6.02,1.35,9.12.03,13.59.01,27.18.04,40.76,0,.87-.24,1.21-1.13,1.47-12.06,3.4-24.09,6.85-36.14,10.29-9.77,2.79-19.55,5.56-29.32,8.34-1.32.38-1.48.23-1.48-1.34,0-16.36.11-32.72-.05-49.08-.08-8.02-1.92-15.66-6.55-22.41-3.19-4.64-7.47-7.86-12.87-9.53-.42-.13-.83-.29-1.25-.43.02-.05.03-.1.05-.15Z"/>
    <path class="cls-2" d="m50.42,113.59c0-6.46,0-12.82,0-19.18,0-7.54,0-15.09,0-22.63,0-3.08-.26-6.2.08-9.24.54-4.79,2.72-8.67,7.62-10.3,3.35-1.12,6.82-.98,10.25-.39,8.05,1.39,13.56,6.04,17,13.36,2.44,5.2,3.47,10.71,3.5,16.38.08,15.77.03,31.53.03,47.3,0,.27-.03.54-.07,1.07-12.84-5.47-25.58-10.9-38.42-16.37Z"/>
    <path class="cls-3" d="m88.49,133.97c-2.92,3.23-5.76,6.4-8.63,9.54-4.35,4.75-8.82,9.4-13.04,14.25-4.82,5.54-10.35,10-17.36,12.43-5.35,1.86-10.8,2.89-16.42,1.37-6.92-1.88-11.3-7.65-11.36-14.83-.04-5.52,1.57-10.63,4.54-15.17,1.71-2.62,4.17-4.77,6.32-7.1,5.32-5.77,10.68-11.5,15.98-17.29.62-.67,1.05-.72,1.83-.37,9.43,4.23,18.87,8.43,28.3,12.65,3.02,1.35,6.04,2.71,9.06,4.07.24.11.45.26.78.45Z"/>
  </g>
  <g>
    <path class="cls-1" d="m111.89,118.57l7.79-18.73-11.79,2.99-.73-2.89,15.82-4.02.58,2.3-7.7,18.71,11.7-2.97.73,2.89-15.82,4.02-.58-2.3Z"/>
    <path class="cls-1" d="m126.85,94.95l2.89-.73,5.31,20.92-2.89.73-5.31-20.92Z"/>
    <path class="cls-1" d="m135.22,92.82l8.31-2.11c2.92-.74,5.96,1.34,6.79,4.61s-.85,6.55-3.76,7.29l-5.42,1.38,2.29,9.02-2.89.73-5.31-20.92Zm10.28,7.24c1.53-.39,2.38-2.24,1.93-4s-2.08-2.99-3.61-2.6l-5.04,1.28,1.68,6.6,5.04-1.28Z"/>
  </g>
</svg>