<?xml version="1.0" encoding="UTF-8"?>
<svg id="Layer_1" data-name="Layer 1" xmlns="http://www.w3.org/2000/svg" viewBox="0 0 199.83 199.83">
  <defs>
    <style>
      .cls-1 {
        fill: #e68344;
      }
    </style>
  </defs>
  <path class="cls-1" d="m30.49,20.75c42.1,0,84.2,0,126.3,0,.21.27.36.65.64.8,1.67.92,2.38,2.38,2.44,4.21.03.83.03,1.66.03,2.49.01,19.8.02,39.6.04,59.4,0,.55,0,1.1,0,1.71.56.04.91.09,1.26.1,2.23.02,4.46-.08,6.68.07,5.7.38,9.97,3.11,12.76,8.1,1.55,2.76,1.82,5.79,1.83,8.87.01,21.1,0,42.19,0,63.29,0,1.55.03,3.11.02,4.66-.02,1.6-.4,3.09-1.67,4.19-1.29,1.12-2.83,1.39-4.48,1.39-33.48,0-66.97,0-100.45-.01-.67,0-1.35,0-2.01-.13-2.6-.47-3.99-1.94-4.31-4.56-.11-.92-.1-1.86-.1-2.79-.01-3.77,0-7.54,0-11.55-.83,0-1.65,0-2.46,0-8.09,0-16.17.02-24.26-.02-8.76-.05-13.99-5.56-15.48-12.04-.62-2.69-.59-5.56-.6-8.34-.03-37.73-.02-75.46,0-113.2,0-.78.01-1.56.1-2.33.17-1.6.95-2.8,2.45-3.5.45-.21.85-.54,1.28-.81Zm5.64,9.29c-.02.35-.05.54-.05.74,0,38.2,0,76.4,0,114.61,0,3.48,2.38,6,5.81,6.22,3.23.2,6.03-2.29,6.35-5.72.11-1.13.18-2.27.18-3.41,0-7.93-.03-15.86-.04-23.79,0-4.92-.06-9.85.06-14.77.2-7.99,7.62-14.54,14.89-14.43.93.01,1.87-.02,2.8-.02,27.73,0,55.46.01,83.19.01.39,0,.78-.07,1.14-.1V30.04H36.13Zm41.39,68.74c1.13,2.51,1.28,4.94,1.28,7.36,0,21.1-.04,42.2-.06,63.3,0,.39.07.78.11,1.21h94.11v-2.07c0-21.2,0-42.41,0-63.61,0-3.48-2.37-5.96-5.85-6.15-.93-.05-1.87-.05-2.8-.05-28,0-55.99,0-83.99,0-.86,0-1.72,0-2.8,0Zm-8.13,52.81c.04-.63.1-1.13.1-1.63,0-13,0-26-.02-39,0-2.28.07-4.56-.11-6.83-.24-3.06-2.84-5.3-5.87-5.29-3.11,0-5.58,2.15-5.95,5.22-.14,1.13-.18,2.27-.18,3.41.02,12.02.07,24.03.09,36.05,0,2.49-.1,4.97-1.05,7.33-.09.21-.03.48-.05.73h13.03Z"/>
  <path class="cls-1" d="m96.75,68.16h-9.64c0,.83.02,1.65,0,2.46-.07,2.52-2.03,4.72-4.35,4.88-2.37.17-4.42-1.67-4.82-4.32-.04-.26-.08-.51-.08-.77.06-4.81,0-9.63.24-14.44.26-5.52,5.21-12.32,13.27-12.66,6.51-.27,12.25,3.6,14.04,10.56.36,1.38.44,2.86.47,4.3.08,4.04.13,8.08.06,12.12-.02,1.03-.32,2.17-.84,3.07-.98,1.69-3.13,2.48-4.82,2.04-1.95-.5-3.36-2.17-3.51-4.25-.07-.92-.01-1.84-.01-2.99Zm.09-9.45c-.07-2.44-.53-4.53-2.81-5.58-1.75-.81-3.54-.73-5.1.51-1.64,1.31-2.09,3.08-1.73,5.07h9.64Z"/>
  <path class="cls-1" d="m126.29,52.25c1.86-2.35,3.53-4.45,5.19-6.55.92-1.16,1.94-2.12,3.53-2.31,1.73-.21,3.21.21,4.29,1.59,1.19,1.51,1.41,3.23.59,4.96-.41.87-1.06,1.65-1.68,2.41-1.92,2.37-3.87,4.72-5.86,7.13,1.79,2.16,3.51,4.23,5.22,6.3.59.72,1.21,1.42,1.76,2.18,1.58,2.19,1.28,5.03-.63,6.57-1.62,1.31-4.63,1.65-6.56-.64-1.67-1.97-3.25-4.03-4.88-6.04-.31-.38-.66-.73-1.08-1.2-1.37,1.74-2.62,3.31-3.87,4.89-.64.81-1.25,1.66-1.96,2.41-1.82,1.92-4.7,2.13-6.58.53-1.9-1.61-2.17-4.48-.5-6.57,1.97-2.47,4.04-4.86,6.06-7.29.3-.35.58-.72.96-1.21-.34-.45-.65-.91-1-1.33-1.58-1.92-3.19-3.81-4.75-5.75-.65-.8-1.28-1.64-1.75-2.55-1.03-2.02-.4-4.37,1.42-5.65,1.75-1.24,4.35-1.09,5.81.51,1.43,1.56,2.67,3.3,4,4.94.68.83,1.39,1.63,2.27,2.66Z"/>
  <path class="cls-1" d="m64.8,52.59c0,1.89,0,3.54,0,5.19.02,4.14.1,8.29.04,12.43-.01.99-.25,2.08-.72,2.95-.98,1.83-3.22,2.73-5.02,2.23-1.98-.55-3.4-2.29-3.42-4.49-.06-5.13-.02-10.26-.02-15.39,0-.92,0-1.84,0-2.92-.59-.03-1.09-.06-1.58-.07-1.14-.02-2.28.02-3.42-.03-2.46-.12-4.31-1.88-4.53-4.27-.19-2.06,1.44-4.23,3.65-4.77.75-.18,1.53-.28,2.3-.28,5.6-.02,11.19-.04,16.79.01.95,0,1.97.22,2.85.6,1.97.84,2.99,2.9,2.64,4.94-.36,2.08-1.98,3.62-4.13,3.8-1.18.1-2.38.05-3.57.07-.5,0-1.01,0-1.85,0Z"/>
  <path class="cls-1" d="m110.11,141.53c4.87,0,9.73,0,14.6,0,.67,0,1.35.04,2.01.15,2.25.37,3.88,2.15,3.97,4.29.09,2.22-1.41,4.24-3.64,4.77-.85.2-1.74.27-2.62.27-9.58.02-19.15.02-28.73,0-.82,0-1.66-.09-2.47-.23-2.18-.37-3.88-2.36-3.94-4.56-.05-2.08,1.41-3.96,3.61-4.45.95-.21,1.95-.26,2.93-.26,4.76-.03,9.52-.01,14.29-.01v.02Z"/>
  <path class="cls-1" d="m109.98,128.51c-4.61,0-9.22,0-13.84,0-.67,0-1.35-.03-2.02-.08-2.76-.21-4.81-2.23-4.83-4.71-.02-2.49,2.04-4.45,4.88-4.65.26-.02.52-.01.78-.01,10.1,0,20.21,0,30.31,0,1.45,0,2.77.28,3.86,1.3,1.36,1.28,1.93,2.83,1.37,4.63-.61,1.96-2.03,3.09-4.05,3.39-.97.14-1.96.14-2.95.15-4.51.01-9.02,0-13.53,0h0Z"/>
  <path class="cls-1" d="m153.12,151.02c-2.38,0-4.77.01-7.15,0-1.79-.01-3.35-.52-4.43-2.09-1.89-2.74-.43-6.47,2.84-7.17.75-.16,1.54-.23,2.31-.23,4.45-.02,8.91-.02,13.36,0,1.24,0,2.47.1,3.56.85,1.64,1.13,2.47,2.62,2.18,4.63-.26,1.81-1.9,3.43-3.83,3.82-.65.13-1.33.18-2,.19-2.28.02-4.56,0-6.84,0h0Z"/>
  <path class="cls-1" d="m153.24,128.45c-2.69,0-5.38.02-8.07,0-1.43-.02-2.59-.64-3.46-1.78-2.49-3.25-.14-6.48,2.27-7.27.68-.22,1.42-.32,2.13-.32,4.81-.03,9.63-.04,14.44,0,.81,0,1.66.17,2.4.48,2.05.85,3.19,2.97,2.83,5-.36,1.98-2.21,3.76-4.32,3.84-2.74.11-5.48.03-8.23.03,0,0,0,.01,0,.02Z"/>
</svg>