<?xml version="1.0" encoding="UTF-8"?>
<svg id="Layer_1" data-name="Layer 1" xmlns="http://www.w3.org/2000/svg" viewBox="0 0 199.83 199.83">
  <defs>
    <style>
      .cls-1 {
        fill: #e68344;
      }
    </style>
  </defs>
  <path class="cls-1" d="m99.1,181.61h-4.35c-2.13-.17-4.26-.32-6.39-.52-7.39-.68-14.52-2.45-21.39-5.2-13.9-5.55-25.49-14.23-34.63-26.1-9.65-12.55-15.22-26.72-16.59-42.51-.1-1.13-.23-2.25-.34-3.38,0-2.72,0-5.43,0-8.15.06-.15.15-.29.17-.44.12-1.35.21-2.7.35-4.05,1-10.01,3.86-19.49,8.5-28.4,8.54-16.38,21.17-28.57,37.86-36.51,8.86-4.22,18.2-6.68,28-7.42,1.25-.09,2.49-.22,3.74-.33,1.93,0,3.86,0,5.8,0,.25.05.51.14.76.14,5.86.21,11.62,1.08,17.27,2.6,14.99,4.03,27.81,11.71,38.47,22.99,6.58,6.96,11.74,14.87,15.52,23.67,3,7,5.03,14.27,5.9,21.84.28,2.39.46,4.79.68,7.19v6.7c-.05.25-.13.51-.14.76-.25,5.09-.98,10.11-2.2,15.07-3.59,14.47-10.62,27.02-21.05,37.66-8.74,8.92-19.02,15.46-30.78,19.67-6.69,2.39-13.57,3.89-20.67,4.4-1.5.11-3,.22-4.5.34Zm-18.52-112.34c.05.05.1.1.15.15,0,.34-.1.76.05,1.02.42.68.95,1.28,1.46,1.94-.43.97-1.3,1.45-2.58,1.22.32-.12.63-.24,1-.38-.07-.25-.15-.5-.23-.76-1.87.22-3.34.9-4.05,2.76-.18.46-.49,1.02-.89,1.21-1.85.9-2.6,2.5-3.19,4.34-.31.96-.99,1.84-1.66,2.62-.66.77-1.56,1.34-2.29,2.06-.51.5-.68,1.11-.46,1.88.36,1.3.59,2.63.81,3.96.04.26-.27.57-.41.85-.24-.17-.6-.29-.7-.52-.41-.93-.75-1.89-1.1-2.85-.26-.72-.72-.94-1.48-.76-.35.08-.77-.1-1.16-.19-.89-.21-1.77-.44-2.83-.7.23.58.35.9.49,1.24-.74.51-1.45.67-2.22.19-1.39-.86-2.96-.58-3.87.85-.43.68-.67,1.54-.78,2.35-.43,3.02.07,5.73,2.82,7.58.32.22.59.52,1.06.95.99.07,1.14-.1.99-1.32-.02-.18.09-.41.2-.58.3-.45.71-.48,1.25-.57.86-.16,1.62-.86,2.68-1.48-.15.46-.19.71-.32.9-.11.16-.39.22-.47.39-.72,1.58-1.78,3.12-.58,5,.89-.23,1.97.42,3.04-.76.13,2.65.77,4.99,2.15,7.18,1.31.22,1.65.13,2.42-.79.98.12,1.13.84,1.11,1.63,1.11-.05,1.46-.35,1.47-1.4,0-.62.24-.99.78-1.21.38-.15.76-.29,1.13-.45.37-.16.9-.59,1.06-.48.73.5,1.29.12,1.83-.22.6-.37.96-.26,1.16.36.36,1.12,1.15,1.56,2.28,1.49.63-.04,1.25-.09,1.88-.13.19-.01.45-.05.56.05,1.19,1.05,2.38,2.1,3.51,3.22.44.44,2.14,1.01,2.77.82.21-.06.5,0,.71.09,1.51.65,1.92,2.13,2.41,3.46.26.71.04,1.58.13,2.36.04.35.26.85.52.95.3.11.73-.15,1.11-.25l.02-.27c.51.36,1.1.64,1.49,1.1.67.78.62.83,1.13-.02,1.12.54.53,1.57.69,2.47.35-.12.68-.23,1-.35,1.01-.36,2-.95,3.03-1.05,2.65-.25,4.96,1.57,5.39,4.04.47,2.69-.98,4.96-3.71,5.77-.77.23-1.21.63-1.2,1.53.02,2.02-.2,4.03-.98,5.91-.34.82-.65,1.81-1.29,2.31-1.18.93-2.57,1.63-3.93,2.3-.99.49-1.6,1.14-1.64,2.21-.02.51-.04,1.02-.07,1.54-.08,1.33-.88,2.3-2.17,2.63-.82.21-1.44,1.1-1.69,1.93-.23.77-.54,1.82-1.13,2.12-1.42.72-1.78,1.77-1.52,3.25-1.16.36-2.24.66-3.29,1.04-.38.14-.9.37-1.02.69-.35.92-.47,1.97-2.04,1.49.74,1.28.56,2.19-.44,2.97-.33.25-.58.61-.83.95-.67.94-.86,1.98-.7,3.18q.69-.61,1-.19c-.73.85-1.46,1.69-2.23,2.57.14.05.21.09.28.11,8.94,2.47,18.03,3.03,27.22,1.94,9.1-1.09,17.66-3.88,25.67-8.32,10.24-5.68,18.56-13.44,25.03-23.18.26-.4.34-.94.42-1.43.17-1.01.28-2.03.42-3.07.52.15.9.87,1.29-.02-.64-.27-.78-.68-.3-1.23.08.03.16.06.24.08,1.37.47,1.49.39,1.56-1.07,0-.14.06-.38.15-.41.92-.29.92-1.25,1.21-1.88,1.2-2.65,2.35-5.34,3.3-8.09,2.23-6.45,3.29-13.13,3.56-19.94.04-.92,0-1.85,0-2.74-.55.46-1.01.88-1.51,1.23-.96.69-1.89,1.46-2.94,1.98-1.59.79-3.28,1.37-4.91,2.08-1.15.51-1.82.32-2.45-.79-.23-.41-.5-.81-.73-1.23-.27-.47-.56-.92-.76-1.42-.86-2.1-1.63-4.24-2.54-6.32-.59-1.33-1.36-2.58-2.06-3.86-.21-.38-.47-.75-.74-1.09-.62-.81-1.26-1.61-1.96-2.49.96-.2,1.88.25,2.37-.89-.21-.1-.45-.21-.46-.21.5-1.81.94-3.4,1.44-5.22-.74.15-1.14.27-1.55.32-.6.06-1.2.1-1.8.1-.53,0-1.06-.17-1.57-.11-1.61.2-2.69-.58-2.92-2.2-.05-.36-.07-.72-.15-1.07-.16-.65-1.45-1.33-2.14-1.07-.8.31-.47,1.01-.27,1.47.43,1,.29,1.83-.42,2.61-.03.04-.1.04-.38.16-.3-.4-.66-.84-.96-1.32-.19-.3-.23-.69-.43-.98-.54-.81-1.26-1.49-1.1-2.64.04-.28-.52-.71-.88-.96-.91-.66-1.88-1.24-2.8-1.89-.39-.27-.72-.64-1.11-.92-.14-.1-.47-.12-.57-.03-.14.14-.26.46-.2.63.13.32.36.62.61.87.42.42.9.8,1.34,1.2.2.18.36.41.56.59.33.28.68.53,1.02.8,0,.01-.01.03-.02.04.44.34.89.69,1.33,1.03-.04.06-.09.13-.13.19-.37-.09-.73-.18-1.17-.29.07.92.25,1.82-.78,2.37-.04-.4-.11-.74-.1-1.09.03-1.24-.72-1.98-1.73-2.38-1.2-.47-2.21-1.03-2.78-2.26-.24-.52-.66-.74-1.25-.35-1.08.71-2.27.86-3.52.55-.19-.05-.41,0-.61,0-.57,1.41-1.12,2.78-1.67,4.15-.61,1.54-1.43,2.81-3.36,2.72-.24-.01-.48,0-.72.03-1.41.16-2.88-.74-2.98-2.14-.12-1.62.08-3.26.15-4.95,1.25.58,2.3.47,3.24.11.96-.36,1.04-.43,1.15.61.69-.04,1.51.39,1.85-.54-.15-.27-.35-.62-.25-.77.6-.9.22-1.6-.36-2.28-.6-.71-1.21-1.42-1.84-2.16,2.22.75,2.37.71,2.3-.55.36.22.73.44,1.06.64.41-.36.73-.64.94-.83-.05-.6-.09-1.09-.12-1.5.42-.06.93-.02.99-.15.19-.51.4-.74.96-1.03.89-.46,1.63-1.17,2.7-1.3.18-.02.34-.21.33-.21-.18-1.08-.34-2.03-.48-2.91.77-.34,1.38-.61,2.13-.94.06.52.05.92.18,1.27.1.3.34.56.57.79.07.07.44-.02.46-.08.07-.34.19-.75.07-1.03-.36-.8-.84-1.54-1.32-2.39-1,.72-2.11.22-3.26.1-1.31-.14-1.65-1.14-2.21-1.97-.09-.13.03-.58.17-.65.7-.34,1.43-.63,2.16-.88.85-.29,1.75-.46,2.58-.8.55-.22,1.02-.65,1.52-.99-.12-.07-.25-.14-.37-.21.06-.37-.02-.85.19-1.08.88-.95,1.8-1.88,2.8-2.69.58-.47,1.32-.82,2.05-1.03,1.21-.35,2.46-.6,3.71-.8,1.12-.18,2.26-.3,3.4-.35.66-.03,1.33.14,1.98.21.02-.14.03-.18.02-.2-.1-.11-.21-.22-.32-.32-7.98-7.28-17.12-12.51-27.46-15.63-11.15-3.36-22.47-3.91-33.88-1.73-12.6,2.4-23.73,7.92-33.4,16.36-.21.18-.26.56-.38.83.78.1,1.33.18,1.89.25-.01.11-.03.22-.04.33-.27-.03-.54-.06-.81-.09-.08,1.11-.12,1.14-1.13.85-.2-.06-.44-.06-.6-.16-.8-.53-1.24-.08-1.65.52,1.33,1.55,5.24,1.9,6.8.6-.37-.4-.74-.8-1.23-1.32.6,0,1.17-.05,1.73.01.6.07.81-.11.96-.72.12-.5.5-.98.88-1.35.27-.26.73-.32,1.19-.5.24.22.55.46.8.75.58.68,1.1,1.43,1.71,2.08.65.69.89.62,1.43-.49.41.98.74,1.78,1.07,2.59,1.2-.23,1.59-1.02,1.46-3.1.3.04.75.22.85.11.54-.65.49.46.94.27.35-.15.83-.04,1.24.04.1.02.21.35.21.54-.01,1.12.06,2.27-1.41,2.66-.31.08-.71.53-.71.81,0,.28.4.63.71.82.6.36,1.26.63,1.91.95-1.56.12-3.04.24-4.78.37,1.09-.72,1.39-1.52,1.33-2.78-.69.29-1.41.38-1.75.79-.57.68-.87,1.58-2.03,1.26-.05-.01-.13.11-.21.14-.72.27-1.42.59-2.16.78-.71.18-1.27.5-1.34,1.26-.11,1.24-.36,2.55,1.07,3.31.18.09.38.26.45.44.68,1.71,2.27,1.56,3.65,1.83.29.06.61.05.88.17.43.19.92.37,1.21.71.79.89,1.25,1.03,2.27.45,1.15,1.09,1.65,2.46,1.7,4.06.72.1,1.5.29,2.01-.49-.17-.25-.37-.43-.45-.65-.17-.49-.32-1-.4-1.51-.09-.57,0-.98.78-.89.86.09,1.17-.36.99-1.21-.02-.11.02-.23.05-.35.27-1.16.49-2.3-.9-2.63.08-.6.2-1.1.2-1.6,0-.52-.12-1.04-.2-1.65.83.12,1.55.16,2.24.34.8.22,1.52.34,2.03-.44.7.21.84,1.44,1.87.74.45,1.39,2.23,1.73,2.3,3.32,1.51.14,2.08-.25,2.81-1.85,1.48,1.93,2.99,3.9,4.51,5.87.2-.16.48-.37.76-.58-.1.13-.19.25-.29.38.71.38,1.42.77,2.13,1.15-.57.77-.77,1.48-1.16,1.61-.54.18-1.22-.08-1.89-.16-.33,1.09-1.17,1.42-2.23,1.36-.45-.03-.9-.12-1.35-.1-.95.03-2.03-.17-2.82.22-1.57.76-2.61,2.15-3.16,3.98l4.53-2.14Zm-48.05,1.01c-.09,0-.19.02-.28.02-18.46,40.3,3.74,84.03,40.24,96.62,0-.47-.04-.92,0-1.37.14-1.25.11-2.58.54-3.73.65-1.75.97-3.48.88-5.34-.03-.68.07-1.42.33-2.05.58-1.41,1.19-2.76,1.22-4.36.03-1.59.18-3.17.52-4.77.51-2.42.36-4.97.45-7.47.05-1.37-.69-2.59-1.79-3.01-1.95-.74-2.59-2.19-2.94-3.95-.48-2.44-1.46-4.69-3.13-6.48-.89-.96-.75-1.6-.28-2.51.29-.55.59-1.11-.04-1.68-.14-.12-.13-.45-.13-.68-.03-1.57.85-2.74,1.76-3.97.57.52.98.41,1.15-.05-.16-.63-.33-1.05-.37-1.48-.08-.96.01-1.94-.15-2.87-.09-.5-.57-.92-.88-1.38-.35.34-.7.68-1.11,1.09-.03,0-.2-.06-.37-.1-1.4-.34-2.91-.54-3.09-2.44,0-.05-.06-.1-.09-.15-.59-.89-1.36-1.63-1.9-2.6-.44-.8-1.64-1.21-2.54-1.74-.94-.55-1.91-1.05-2.87-1.56-.36-.19-.73-.4-1.12-.51-.57-.17-1.18-.21-1.75-.38-1.5-.47-3.01-.92-4.47-1.5-1.08-.42-1.99-1.09-2.14-2.41-.08-.68-.17-1.38-.37-2.03-.34-1.13-.56-2.31-1.76-3.02-.69-.41-1.17-1.16-1.74-1.76-.27-.28-.59-.54-.81-.86-.63-.91-1.2-1.86-1.86-2.75-.16-.22-.58-.25-.89-.36.07.32.07.68.23.95,1.05,1.68,2.14,3.33,3.19,5.01.2.33.34.71.43,1.09.05.2,0,.47-.12.64-.05.07-.44.03-.55-.08-.68-.7-1.35-1.41-1.97-2.16-.26-.31-.44-.69-.61-1.06-.85-1.82-1.68-3.64-2.51-5.46-.02-.05-.01-.12-.02-.18-.22-1.3-.69-1.76-1.95-2-.29-.05-.64-.21-.79-.43-.98-1.46-1.92-2.95-2.86-4.44-.04-.07-.04-.17-.05-.26-.11-1.29-.22-2.57-.32-3.86-.11-1.39-.21-2.78-.32-4.17Zm132.35,9.4c.36,0,.51,0,.66,0,1.64-.06,2.68-1.06,2.66-2.55-.03-1.48-1.12-2.49-2.73-2.51-.6,0-1.21,0-1.81,0-.76,0-1.52-.75-1.2-1.35.43-.82-.12-1.23-.33-1.89-.68.46-1.42.75-1.84,1.3-.41.53-.72,1.31-.04,1.99-1.59.48-2.4,1.53-2.21,2.8.23,1.55,1.17,2.16,3.21,2.23.88.76,1.57,1.49,2.39,2.01.59.38,1.32.33,1.76-.37-.08-.01-.16-.03-.24-.04-.09-.52-.19-1.03-.29-1.62Zm-9.47-2.85c-.14-.29-.32-.49-.34-.72-.08-.77-.49-1.25-1.15-1.61-.41-.23-.78-.56-1.14-.87-.86-.74-2.08-.85-3.17-.31-.22.11-.67.13-.8,0-.33-.37-.51-.87-.81-1.27-.22-.29-.51-.62-.82-.69-.3-.07-.88.05-.99.27-.88,1.67-2.54,3.19-1.23,5.47,1.8-.19,3.62-.38,5.54-.58.08.09.29.3.52.56.14-.18.26-.32.38-.46,1.99,1.45,2.55,1.48,4.01.24Zm7.83,13.31c-.11.03-.21.05-.32.08.17,1.11.22,2.25.55,3.31.33,1.06,1.59,1.63,2.62,1.44,1.08-.2,1.97-1.2,2.06-2.33.1-1.18-.5-2.12-1.6-2.54-1.19-.45-2.15,0-2.98.87-.13-.32-.23-.58-.33-.83Zm-12.35-36.65c.07.4.09.53.12.66.08-.03.16-.06.23-.09-.07-.11-.14-.23-.35-.57Z"/>
  <path class="cls-1" d="m130.39,81.05c.74,1.52,1.47,3.05,2.28,4.73.09,0,.46-.08.8-.02.31.06.59.26.87.41.29.15.57.43.86.45,1.13.05,2.29.13,3.4-.03.59-.08,1.12-.63,1.93-1.12.23.25.63.7,1.16,1.29.93.1,2.14.14,3.31.38.66.13,1.31.51,1.85.92.8.6,1.41,1.36,1.68,2.41.16.62.7,1.15,1.07,1.71.08.12.16.24.22.36.86,1.67,1.57,3.44,2.6,5,1.11,1.69,1.95,3.47,2.65,5.33.58,1.54,1.25,2.99,2.54,4.08.14.12.11.42.21.82,1.71-.2,3.51-.4,5.46-.63-.23.63-.44,1.18-.63,1.73-.2.59-.35,1.2-.58,1.77-.11.27-.47.46-.51.72-.36,2-1.92,3.12-3.16,4.49-1.27,1.41-2.52,2.83-3.76,4.26-.63.72-1.19,1.45-1.14,2.53.04.86-.28,1.75-.19,2.6.12,1.16.43,2.31.76,3.43.66,2.21.07,4.28-.72,6.3-.16.42-.82.64-1.26.95-.85.6-1.27,1.41-1.45,2.45-.38,2.17-.3,4.45-1.32,6.49-.15.31-.34.63-.59.85-1.15,1.03-2.21,2.08-2.81,3.58-.34.87-1.09,1.58-1.68,2.34-.09.12-.31.18-.48.22-1.64.35-3.29.7-4.93,1.04-.12.02-.24.05-.35.07-1.54.2-1.53.09-1.98-1.37-.57-1.88-1.39-3.68-2.04-5.54-.57-1.66-1.06-3.35-1.58-5.04-.5-1.62-.92-3.28-1.51-4.87-.73-1.94-.51-3.84.02-5.74.61-2.19.86-4.38.07-6.55-.31-.85-.82-1.66-1.38-2.38-.89-1.13-1.42-2.23-.8-3.71.31-.73.35-1.58.43-2.38.15-1.37-.1-1.66-1.49-1.69-.81-.02-1.54-.11-2.3-.51-.63-.33-1.46-.38-2.2-.37-1.44.02-2.96-.07-4.32.32-2.56.74-4.5-.44-5.99-2.03-1.61-1.72-2.99-3.75-3.55-6.17-.06-.25-.29-.45-.35-.7-.11-.47-.36-1.1-.16-1.41.4-.63.28-1.2.12-1.78-.25-.89-.47-1.74.1-2.59.11-.16.12-.41.1-.61-.13-1.89.53-3.55,1.52-5.1.38-.6.65-1.19,1.39-1.63.92-.55,1.64-1.6,2.19-2.57.45-.79.49-1.8.76-2.7.15-.48.23-1.1,1.04-.87.14.04.38-.23.55-.38.52-.45,1.01-.94,1.55-1.35.22-.17.65-.35.81-.25.91.56,1.72.05,2.33-.38,1.92-1.34,3.94-1.95,6.26-1.43.63.14,1.29.12,1.94.18.11-.11.22-.22.33-.33Z"/>
  <path class="cls-1" d="m107.07,54.27c-.84,0-1.68.03-2.53,0-1.46-.05-2.51-1.14-2.51-2.54,0-1.44,1.1-2.51,2.6-2.52,1.66-.01,3.31-.01,4.97,0,1.42,0,2.57,1.09,2.63,2.44.06,1.35-1.02,2.53-2.46,2.62-.9.06-1.8.01-2.71.01Z"/>
  <path class="cls-1" d="m120.55,59.49c-.24.54-.43.96-.62,1.38l.21.2c.42-.23.84-.46,1.37-.75-.08.23-.1.4-.19.51-.45.51-.18.8.17,1.28.81,1.12,2.39,1.88,1.75,3.75.15.07.3.15.45.22.17-.2.34-.4.49-.58,0,0,.08.25-.01.34-.84.85-1.86,1.29-3.08,1.17-.12-.01-.33-.04-.33-.07-.13-1.15-.97-.47-1.63-.57.1-.51.2-.99.31-1.53.46-.02.9-.04,1.4-.07-.51-.82-.22-2.26-1.83-1.99-.19-.69-.39-1.29-.53-1.9-.1-.42.07-.61.55-.7.49-.09.94-.42,1.52-.7Z"/>
  <path class="cls-1" d="m116.67,63.62c-.16-.35-.28-.62-.38-.85.71.04,1.32.08,1.94.11.24,1.37-.91,3.03-2.26,3.2-.73.09-.94-.16-.75-.86.09-.33.14-.67.23-1.16.29-.11.76-.28,1.22-.45Z"/>
  <path class="cls-1" d="m67.84,95.73c2.43-.97,3.88.38,5.49,1.79-.97.69-1.71.32-2.42,0-.79-.38-1.56-.82-2.32-1.25-.25-.14-.47-.33-.75-.53Z"/>
  <path class="cls-1" d="m73.48,99.47h1.59c-.18-.37-.31-.62-.44-.89.76-.22,1.57.84,2.52-.2.28.32.64.74,1.14,1.32h-4.84c0-.08.02-.15.03-.23Z"/>
  <path class="cls-1" d="m129.12,77.37c.06-.14.14-.31.23-.52.09.11.15.15.16.19.01.33.1.69,0,.98-.1.26-.41.46-.65.64-.03.02-.37-.23-.37-.34,0-.4.11-.79.18-1.19.15.08.31.17.46.25Z"/>
  <path class="cls-1" d="m131.93,80.12c.73-.03,1.48.97,2.21-.08,0,.84-.19,1.25-.98.88-.42-.2-.85-.37-1.27-.56.01-.08.03-.16.04-.24Z"/>
  <path class="cls-1" d="m70.21,99.3c.28.18.56.35.84.53.13-.14.28-.31.54-.6.06.3.09.47.12.64-.49.06-.97.15-1.46.15-.08,0-.17-.37-.25-.57.07-.05.13-.1.2-.15Z"/>
  <path class="cls-1" d="m129.88,75.07c-.33.56-.54.9-.8,1.34-.16-.35-.29-.63-.41-.9.33-.12.63-.23,1.21-.44Z"/>
  <path class="cls-1" d="m65.12,95.15c.61.26.95.4,1.51.64-.51.06-.85.16-1.16.1-.13-.03-.2-.39-.36-.74Z"/>
  <path class="cls-1" d="m80.54,99.72c-.21,0-.42-.02-.63-.03l.03-.27c.21.03.42.06.63.1l-.02.2Z"/>
  <path class="cls-1" d="m119.57,67.61c-.17.02-.34.05-.5.07-.01-.06-.03-.11-.04-.17.17-.05.33-.1.5-.15l.05.24Z"/>
  <path class="cls-1" d="m76.32,105.46c-.13.07-.22.12-.32.18-.04-.07-.12-.18-.1-.22.05-.08.15-.14.24-.17.04,0,.1.11.18.21Z"/>
  <path class="cls-1" d="m80.58,69.26c.23-.09.46-.17.69-.26.02.07.05.15.07.22-.2.06-.41.12-.61.19-.05-.05-.1-.1-.15-.15Z"/>
</svg>