<?xml version="1.0" encoding="UTF-8"?>
<svg id="Layer_1" data-name="Layer 1" xmlns="http://www.w3.org/2000/svg" viewBox="0 0 199.83 199.83">
  <defs>
    <style>
      .cls-1 {
        fill: #e68344;
      }
    </style>
  </defs>
  <path class="cls-1" d="m188.3,91.46c-.52,5.51-2.13,10.63-5.48,15.06-7.23,9.55-16.9,13.73-28.73,11.82-8.44-1.36-14.91-5.6-19.37-12.29-1.03-1.56-1.96-3.25-2.78-5.07-2.25-5-2.96-10.27-2.11-15.72.54-3.43,1.59-6.7,3.31-9.74.26-.45.24-.72-.2-1.04-.93-.68-1.78-1.47-2.73-2.1-7.91-5.28-16.78-7.56-26.14-8.11-1.38-.08-2.74-.12-4.12-.13h-.06c-1.38,0-2.74.05-4.12.13-9.36.55-18.23,2.83-26.14,8.11-.95.63-1.8,1.42-2.73,2.1-.44.32-.46.59-.2,1.04,1.72,3.04,2.77,6.31,3.31,9.74.85,5.45.14,10.72-2.11,15.72-.82,1.82-1.75,3.51-2.78,5.07-4.46,6.69-10.93,10.93-19.37,12.29-11.83,1.91-21.5-2.27-28.73-11.82-3.35-4.43-4.96-9.55-5.48-15.06-.37-3.99.47-7.82,1.44-11.62.11-.43.23-.86.36-1.28h0c1.85-6.19,5.34-11.43,9.76-16.14,5.3-5.67,11.62-9.97,18.43-13.57,9.27-4.89,19.11-8.2,29.37-10.22,10.5-1.85,20.24-2.56,28.99-2.56h.06c8.75,0,18.49.71,28.99,2.56,10.26,2.02,20.1,5.33,29.37,10.22,6.81,3.6,13.13,7.9,18.43,13.57,4.42,4.71,7.91,9.95,9.76,16.13h0c.13.43.25.86.36,1.29.97,3.8,1.81,7.63,1.44,11.62Z"/>
  <path class="cls-1" d="m182.13,157.81c-.4-3.97-1.12-7.88-2.17-11.73-1.88-6.84-4.5-13.37-8.1-19.5-.15-.25-.46-.42-.69-.63-.06.02-.12.03-.18.05-.25.11-.5.26-.77.33-5.3,1.39-10.69,1.67-16.06.75-9.36-1.59-16.93-6.3-22.66-13.84-1.23-1.62-2.31-3.29-3.23-5.01-2.63-4.89-4.01-10.21-3.91-16.02.02-1.09,0-2.18,0-3.24-.52-.09-.96-.15-1.4-.24-.44-.1-.86-.24-1.3-.34-4.98-1.17-10.01-2.03-15.13-2.43-4.69-.35-9.36-.25-13.99.35-4.41.58-8.76,1.67-13.15,2.48-.81.15-1.04.45-1,1.25.27,5.1-.79,9.96-2.93,14.54-.67,1.44-1.41,2.81-2.2,4.11-5.43,9-13.57,14.65-24.4,16.76-5.18,1.02-10.36.72-15.49-.49-1.37-.33-1.36-.36-2.09.87-7.29,12.42-11,25.83-11.19,40.22,0,.24.02.48.04.78,1.33,0,2.59-.01,3.85,0,27.93.04,55.86.11,83.79.14,24.75.02,49.49,0,74.24.03.66,0,.76-.25.72-.79-.2-2.8-.31-5.61-.6-8.4Zm-73.98-6.82c-.07.03-.15.05-.22.08-5.82,1.54-11.54,1.19-16.94-1.46-7.84-3.84-12.67-10.13-13.86-18.83-.96-6.93.82-13.2,5.3-18.71,1-1.23,2.07-2.34,3.22-3.33,3.31-2.86,7.21-4.67,11.71-5.36,7.77-1.18,14.51,1.01,19.48,5.06,4.14,3.37,7.05,8.03,8.32,13.08,3.23,12.8-4.31,25.85-17.01,29.47Z"/>
  <path class="cls-1" d="m59.82,43.9c-1.14.36-2.26.74-3.39,1.12.84-.3,1.97-.69,3.39-1.12Z"/>
</svg>