<?xml version="1.0" encoding="UTF-8"?>
<svg id="Layer_1" data-name="Layer 1" xmlns="http://www.w3.org/2000/svg" viewBox="0 0 199.83 199.83">
  <defs>
    <style>
      .cls-1 {
        fill: #e68344;
      }
    </style>
  </defs>
  <path class="cls-1" d="m90.79,74.07h8.4c0,2.29,0,4.52,0,6.74,0,3.23-.05,6.46,0,9.69.14,7.93,5.72,13.63,13.67,13.68,13.86.09,27.72.1,41.58.01,7.92-.05,13.6-6,13.6-13.9,0-5.26,0-10.53,0-15.79,0-.1.04-.2.09-.47,3.97.03,8.09-.63,11.35,2.64,1.78,1.78,2.61,3.99,2.62,6.46.02,21.84.02,43.68.02,65.51,0,3.7-.03,7.4,0,11.1.04,5.28-3.8,9.19-8.48,9.27-5.05.08-10.1.13-15.15.15-7.91.02-15.83.01-23.74,0-7.81,0-15.62-.03-23.44-.04-7.76,0-15.52,0-23.28,0-7.81,0-15.62.02-23.44.02-7.86,0-15.73.01-23.59,0-3.59,0-7.18-.03-10.77-.12-4.15-.11-8.29-3.63-8.27-9.35.02-9.64,0-19.28,0-28.93,0-15.43.02-30.85-.02-46.28,0-4.02,1.3-7.06,4.76-9.51,1.5-1.06,2.73-.68,4.05-.86,1.67-.23,3.4-.06,5.24-.06,0,.64,0,1.15,0,1.65.02,21.66.03,43.33.05,64.99,0,7.68,4.52,13.75,12.02,15.2,3.73.72,7.68.38,11.52.42,4.84.06,9.69-.06,14.53.03,6.81.12,12.07-2.42,15.26-8.61,1.19-2.3,1.53-4.79,1.52-7.37-.06-21.46-.09-42.92-.12-64.38,0-.57,0-1.14,0-1.89Zm42.86,62.79s0,0,0-.01c.78,0,1.56,0,2.33,0,9.23,0,18.47.01,27.7-.05,2.92-.02,4.6-1.79,4.64-4.71.05-3.86.05-7.71.01-11.57-.02-2.48-1.59-4.22-4.04-4.53-.92-.12-1.87-.12-2.8-.12-11.04,0-22.08.02-33.12.02-8.03,0-16.06-.03-24.09-.02-3.65,0-5.36,1.74-5.37,5.34,0,3.34,0,6.67,0,10.01,0,4.08,1.55,5.64,5.62,5.64,9.7,0,19.4,0,29.1,0Zm25.1,19.89v-.14c1.92,0,3.86.2,5.75-.05,2.46-.33,3.94-2.52,3.66-4.92-.28-2.42-2.02-3.94-4.54-3.95-3.07-.01-6.14.15-9.2-.05-2.65-.17-4.93,2.25-4.85,4.53.09,2.65,1.95,4.52,4.82,4.57,1.45.03,2.91,0,4.37,0Zm-50.58-9.05c-1.51,0-3.02,0-4.52,0-2.67,0-4.62,1.69-4.73,4.09-.13,2.69,1.56,4.8,4.25,4.92,3.31.15,6.65.14,9.96,0,2.62-.11,4.49-2.25,4.4-4.69-.09-2.62-1.99-4.32-4.84-4.32-1.51,0-3.02,0-4.52,0Zm25.46,9.05c1.62,0,3.23.05,4.84-.01,2.91-.11,4.82-2.31,4.54-5.14-.22-2.25-2-3.64-4.22-3.44-1.13.1-2.28.02-3.42-.02-2.69-.09-5.4-.49-8.05-.22-2.18.22-3.5,2.52-3.26,4.61.29,2.51,1.92,4.07,4.56,4.19,1.66.08,3.33.02,5,.02Z"/>
  <path class="cls-1" d="m84.85,99.39c0,13.86.02,27.72,0,41.58-.01,5.32-3.96,9.22-9.25,9.23-7.87,0-15.74-.09-23.6.04-4.98.08-9.86-3.13-9.83-9.78.05-10.09-.08-20.19-.1-30.28-.03-17.35-.04-34.7-.05-52.05,0-6.52,3.7-10.19,10.25-10.19,7.56,0,15.11-.02,22.67,0,4.82.01,8.17,2.32,9.38,6.6.39,1.37.43,2.86.43,4.3.03,13.52.02,27.03.02,40.55.03,0,.07,0,.1,0Z"/>
  <path class="cls-1" d="m162.55,67.42c0,7.55.02,15.1,0,22.66-.01,4.39-2.14,7.35-6,8.35-.79.2-1.65.21-2.47.21-13.57,0-27.15-.13-40.72.04-4.56.06-8.8-2.98-8.77-8.84.07-14.96.03-29.92.02-44.88,0-6.15,3.62-9.34,7.6-9.8,2.83-.33,5.72-.21,8.58-.22,7.81-.02,15.63,0,23.44,0,3.13,0,6.26-.09,9.38.05,5.5.25,8.85,3.74,8.95,9.31.09,5.26.02,10.52.02,15.78,0,2.45,0,4.9,0,7.35Zm-28.87-14.69c4.64,0,9.28.02,13.91-.02.81,0,1.7-.07,2.39-.43,1.14-.59,1.74-1.64,1.38-2.99-.42-1.58-1.59-2.28-3.13-2.3-2.87-.04-5.73,0-8.6,0-6.77,0-13.55-.02-20.32,0-2.2,0-3.48,1.1-3.51,2.9-.02,1.79,1.18,2.81,3.49,2.83,4.79.03,9.59,0,14.38,0Zm-.19,17.29s0,0,0,0c4.71,0,9.41.02,14.12-.02.79,0,1.65-.14,2.36-.47,1.22-.57,1.68-1.67,1.4-2.98-.3-1.4-1.49-2.28-3.27-2.28-9.68-.03-19.36-.05-29.04.04-.91,0-2.12.54-2.63,1.23-.49.68-.48,1.94-.26,2.84.34,1.35,1.65,1.61,2.87,1.62,4.82.03,9.63.01,14.45.01Z"/>
</svg>