<?xml version="1.0" encoding="UTF-8"?>
<svg id="Layer_1" data-name="Layer 1" xmlns="http://www.w3.org/2000/svg" viewBox="0 0 199.83 199.83">
  <defs>
    <style>
      .cls-1 {
        fill: #e68344;
      }
    </style>
  </defs>
  <path class="cls-1" d="m153.45,68.89c.96-.71,1.77-1.31,2.58-1.91,2.97-2.21,5.88-4.52,8.94-6.61,2.62-1.79,5.55-1.83,8.5-.84,2.75.93,4.95,2.67,6.89,4.77,3.57,3.88,6.39,8.21,7.8,13.34.86,3.13.91,6.27-.16,9.38-.47,1.36-1.22,2.49-2.4,3.32-1.82,1.28-3.66,2.54-5.48,3.82-.17.12-.35.29-.44.47-.52.98-1.27,1.74-2.17,2.36-7.46,5.19-14.92,10.39-22.4,15.55-1.1.76-1.75,1.55-1.67,3.04.15,2.93.07,5.88.06,8.81-.01,4.73-.05,9.46-.05,14.19,0,5.37.02,10.74,0,16.11,0,3.91.1,7.83-.1,11.73-.35,6.86-3.06,12.62-8.53,16.94-2.51,1.98-5.39,3.14-8.53,3.67-.87.15-1.75.27-2.62.27-28.89.01-57.78,0-86.67.02-2.8,0-5.48-.57-8.06-1.57-5.75-2.24-10.15-6.08-13.14-11.47-1.64-2.97-2.54-6.16-2.54-9.61.02-41.22.01-82.45.01-123.67,0-4.97,1.91-9.14,5.46-12.56,2.94-2.84,6.52-4.53,10.43-5.59,2.75-.74,5.53-1.08,8.37-1.08,28.8,0,57.6-.02,86.4.03,5.21.01,9.96,1.62,13.85,5.24,3.26,3.04,5.18,6.87,5.42,11.3.27,4.94.19,9.89.23,14.84.04,4.2.05,8.4.06,12.6,0,.79-.06,1.59-.08,2.38,0,.18.02.37.04.71Zm-13.28,54.17c-.18.04-.31.04-.39.1-1.5,1.05-3.06,2.02-4.47,3.17-1.86,1.51-3.95,2.32-6.26,2.78-1.98.4-3.93.97-5.9,1.45-6.63,1.61-13.27,3.2-19.9,4.8-2.4.58-4.8,1.12-7.18,1.78-3.05.85-6.18-1.76-5.44-5.05.16-.7.5-1.36.78-2.09-.27-.03-.61-.11-.95-.11-7.87,0-15.74.02-23.61.02-3.56,0-7.12.02-10.67-.04-2.19-.03-3.96-1.63-4.21-3.92-.2-1.86.73-3.71,2.89-4.47.67-.24,1.42-.35,2.13-.36,11.29-.03,22.59-.04,33.88-.02,1.92,0,3.91-.35,5.62.92,2.95-4.76,5.85-9.45,8.81-14.22-.27-.04-.36-.06-.44-.06-4.24.03-8.48.09-12.73.09-10.61.01-21.22,0-31.82,0-1.35,0-2.7.04-4.04.02-2.29-.03-4.43-1.94-4.32-4.68.1-2.28,1.93-3.99,4.07-4.06,2.16-.07,4.33-.08,6.5-.08,9.75,0,19.5,0,29.24.02,6.17.01,12.33.04,18.5.05.16,0,.35-.06.47-.16.96-.79,1.86-1.68,2.88-2.39,5.03-3.55,10.08-7.07,15.13-10.59,3.62-2.52,7.25-5.03,10.89-7.53.41-.28.62-.59.62-1.13-.02-6.08,0-12.16-.01-18.23,0-4.33-.05-8.66-.06-13,0-1.97.08-3.93.04-5.9-.06-2.67-1.15-4.07-3.72-4.77-.88-.24-1.83-.35-2.74-.35-29.2-.02-58.4-.02-87.6,0-2.65,0-5.16.71-7.4,2.14-1.3.82-2.23,1.95-2.23,3.61,0,41.45,0,82.89,0,124.34,0,.52.08,1.06.24,1.56.79,2.51,2.55,4.25,4.68,5.63,1.43.93,2.93,1.72,4.71,1.72,28.98,0,57.96-.01,86.94.02,2.39,0,4.08-1.02,5.38-2.91,1.35-1.95,1.74-4.17,1.75-6.47.01-3.47,0-6.94,0-10.41,0-4.95,0-9.9-.01-14.85-.01-5.02-.04-10.03-.05-15.05,0-.41,0-.83,0-1.32Zm18.27-47.07c-12.65,8.78-25.21,17.49-37.78,26.22.99,1.43,1.89,2.73,2.8,4.03,2.63,3.79,5.27,7.57,7.88,11.37.3.44.54.48.95.18,2.49-1.75,4.98-3.49,7.48-5.23,4.08-2.83,8.17-5.64,12.24-8.47,4.8-3.34,9.59-6.69,14.38-10.03,1.05-.73,2.11-1.44,3.12-2.14-3.71-5.33-7.39-10.63-11.08-15.94Zm-43.58,33.15c-.18.2-.35.36-.47.55-.26.41-.5.83-.75,1.24-2.97,4.77-5.94,9.53-8.89,14.31-.17.27-.24.59-.35.89,6.4-1.56,12.68-3.1,19.05-4.65-2.88-4.13-5.7-8.2-8.58-12.33Zm61.93-23.29c.93-.66,1.94-1.37,2.93-2.1.13-.1.24-.35.23-.51-.12-1.33-.07-2.72-.45-3.98-1.01-3.37-2.97-6.22-5.29-8.82-1-1.13-2.16-2.07-3.55-2.7-.41-.19-.74-.17-1.1.09-1.12.78-2.26,1.54-3.38,2.32-.12.08-.19.22-.28.32,3.63,5.12,7.23,10.21,10.9,15.39Z"/>
  <path class="cls-1" d="m88.45,85.81c-10.43,0-20.87,0-31.3-.01-.74,0-1.51-.06-2.22-.27-2.15-.64-3.01-2.78-2.99-4.25.03-1.97,1.52-3.68,3.49-4.15.53-.13,1.09-.18,1.64-.18,7.34,0,14.68.03,22.01.03,9.33,0,18.65-.03,27.98-.04,4.18,0,8.35,0,12.53-.01,1.58,0,2.97.38,4.03,1.61,1.14,1.32,1.45,2.86.8,4.45-.64,1.56-1.88,2.54-3.61,2.74-.68.08-1.37.09-2.05.09-10.1,0-20.2,0-30.31,0Z"/>
  <path class="cls-1" d="m88.13,65.95c-5.88,0-11.75,0-17.63,0-4.62,0-9.24-.07-13.85.04-1.81.04-4.08-1.33-4.63-3.68-.54-2.29,1.48-5.16,4.4-5.19,1.7-.02,3.4-.02,5.1-.02,19.43,0,38.85,0,58.28,0,2.64,0,4.44,1.35,4.86,3.75.36,2.03-.89,4.69-3.53,4.98-1.12.12-2.25.12-3.37.12-4.73,0-9.45,0-14.18,0-5.15,0-10.29,0-15.44,0,0,0,0,0,0,.01Z"/>
</svg>