<?xml version="1.0" encoding="UTF-8"?>
<svg id="Layer_1" data-name="Layer 1" xmlns="http://www.w3.org/2000/svg" viewBox="0 0 199.83 199.83">
  <defs>
    <style>
      .cls-1 {
        fill: #e68344;
      }
    </style>
  </defs>
  <path class="cls-1" d="m155.24,136.86c2.93-.04,5.3,2.6,5.3,5.81s-2.37,5.71-5.3,5.71-5.25-2.55-5.25-5.71,2.42-5.76,5.25-5.81Z"/>
  <path class="cls-1" d="m179.6,144.67c.09,8.94-6.35,14.76-14.66,14.7-.94-.01-1.87-.01-2.81-.01l-.66-2.89c-1.63.51-3.62.88-5.57.88-4.28,0-8.04-1.48-10.78-4.13-2.79-2.7-4.51-6.37-4.51-10.83s1.72-8.08,4.51-10.78c2.69-2.65,6.64-4.13,11.19-4.13,4.28,0,7.9,1.39,10.46,3.71,2.55,2.33,3.9,6.51,3.95,10.27.04,3.86-.89,5.53-3.16,5.53-1.72,0-2.7-1.16-2.7-4.27v-9.95h-2.46l-1.07,2.47c-1.67-1.35-3.76-2.19-6.09-2.19-5.25,0-9.57,4.32-9.57,9.62s4.32,9.57,9.57,9.57c2.89,0,5.49-1.21,7.3-3.25,1.16,1.58,2.88,2.46,5.02,2.46,4.5,0,7.11-3.62,7.11-9.99,0-4.64-2-9.76-5.25-12.78-3.3-3.06-7.9-4.97-13.25-4.97s-10.31,1.91-13.84,5.3c-3.53,3.39-5.76,8.04-5.76,13.47s2.13,9.99,5.53,13.29c1.48,1.44,3.21,2.64,5.12,3.54-15.77-.04-31.54,0-47.3,0H34.43c-8.21,0-14.14-5.77-14.16-14.01-.05-19.91,0-39.82,0-59.73,0-10.21,0-20.43,0-30.64,0-1.68.17-3.24,2-3.96,1.79-.71,3.12.02,4.4,1.29,11.92,11.73,23.87,23.44,35.82,35.15,11.32,11.09,22.65,22.17,33.98,33.25,2.45,2.4,4.46,2.41,6.9,0,9.68-9.51,19.36-19.03,29.04-28.53,10.5-10.31,21.01-20.6,31.52-30.89,3.18-3.12,6.42-6.18,9.59-9.3,1.13-1.13,2.39-1.63,3.91-1.06,1.62.6,2.15,1.92,2.15,3.56-.01,21.26,0,42.51,0,63.77,0,8.82-.07,17.63.03,26.44Z"/>
  <path class="cls-1" d="m99.94,40.48c21.72,0,43.44.01,65.17-.02,1.83,0,3.26.41,3.98,2.22.68,1.73-.24,2.97-1.38,4.08-12.35,12.09-24.72,24.17-37.06,36.27-8.54,8.36-17.05,16.76-25.58,25.13-.89.87-1.77,1.74-2.71,2.56-1.76,1.55-3.41,1.48-5.15-.22-5.22-5.1-10.43-10.21-15.64-15.32-10.91-10.7-21.81-21.4-32.72-32.09-5.58-5.47-11.2-10.9-16.77-16.37-1.69-1.66-1.97-2.98-1.11-4.51.74-1.32,1.88-1.74,3.35-1.74,18.66.02,37.33.02,55.99.02h9.64Z"/>
</svg>