<?xml version="1.0" encoding="UTF-8"?>
<svg id="Layer_1" data-name="Layer 1" xmlns="http://www.w3.org/2000/svg" viewBox="0 0 199.83 199.83">
  <defs>
    <style>
      .cls-1 {
        fill: #e68344;
      }
    </style>
  </defs>
  <path class="cls-1" d="m63.22,21.73h34.67c1.51.97,1.82,2.42,1.8,4.1-.05,4.49-.02,8.99-.01,13.48,0,.51.06,1.02.09,1.62,2.34,0,4.52,0,6.71,0,3.4,0,4.17.76,4.17,4.12,0,17.17,0,34.35,0,51.52v1.8h8.17c0-2.47-.01-4.86,0-7.26.02-2.64.95-3.58,3.56-3.61.62,0,1.23,0,1.84,0,.07-1.17.04-2.14.19-3.08.25-1.56,1.3-2.41,2.74-2.37,1.43.05,2.44.99,2.57,2.55.08.94.01,1.88.01,2.9.63,0,1,0,1.37,0,3.51.02,4.16.69,4.16,4.26,0,2.18,0,4.37,0,6.61h2.75v-1.31c0-13.86,0-27.71,0-41.57,0-2.66.92-3.59,3.54-3.61,1.53,0,3.06,0,4.7,0,0-2.6-.01-5,0-7.4.02-2.67.9-3.55,3.57-3.55,4.81-.01,9.63,0,14.45,0,3.05,0,3.89.85,3.9,3.9,0,2.33,0,4.66,0,7.05,1.87,0,3.52-.03,5.17,0,1.88.04,2.84.97,3,2.83.04.48.02.96.02,1.44,0,41.89,0,83.78,0,125.67,0,3.52-.72,4.25-4.2,4.25-50.13,0-100.26,0-150.39,0-3.59,0-4.28-.7-4.28-4.33,0-20.87,0-41.73,0-62.6,0-.27,0-.54,0-.8.05-2.52,1-3.48,3.5-3.51.62,0,1.25,0,1.99,0,0-2.57-.01-4.97,0-7.37.02-2.65.93-3.56,3.57-3.57,4.76,0,9.52,0,14.28,0,3.25,0,4.05.81,4.05,4.09,0,2.27,0,4.55,0,6.78h5.47c0-.63,0-1.2,0-1.78,0-22.74,0-45.48,0-68.21,0-3.06.81-3.86,3.91-3.87,2.29,0,4.58,0,7.03,0v-1.68c0-4.55.05-9.1-.03-13.64-.03-1.71.45-3.01,1.94-3.88Zm30.96,158.84c0-.75,0-1.39,0-2.02,0-21.61,0-43.23,0-64.84,0-.69.03-1.39.14-2.07.22-1.44,1.22-2.09,2.56-2.21,1.27-.11,2.43.91,2.66,2.27.12.68.13,1.38.13,2.07,0,21.61,0,43.23,0,64.84v1.93h5.49v-1.81c0-21.67,0-43.34,0-65,0-.75-.02-1.51.13-2.24.27-1.32,1.24-2.01,2.52-2.06,1.22-.05,2.21.57,2.57,1.78.23.75.25,1.58.25,2.37.01,21.67,0,43.34,0,65v1.96h5.48v-1.79c0-21.72,0-43.44,0-65.16,0-.64-.02-1.29.08-1.92.21-1.33,1.1-2.09,2.38-2.22,1.3-.14,2.33.47,2.74,1.74.24.74.27,1.57.27,2.37.01,21.72.01,43.44.01,65.16v1.79h5.47c0-.7,0-1.28,0-1.87,0-21.72,0-43.44,0-65.16,0-.59-.04-1.19.06-1.76.24-1.39,1.17-2.19,2.52-2.28,1.29-.08,2.3.57,2.66,1.87.2.7.22,1.48.22,2.22.01,21.78,0,43.55,0,65.33v1.68h5.37v-76.54h-60.09v76.54h5.38v-2.01c0-21.61,0-43.23,0-64.84,0-.79.02-1.62.23-2.38.35-1.3,1.38-1.93,2.66-1.86,1.27.07,2.22.78,2.47,2.12.12.68.12,1.38.12,2.08,0,21.67,0,43.34,0,65v1.93h5.49ZM23.09,120.39v60.16h27.28v-1.8c0-16.42,0-32.84,0-49.26,0-2.72.94-3.66,3.65-3.69.7,0,1.39,0,2.09,0h16.07v-5.41H23.09Zm43.68-5.6c0-.42,0-.73,0-1.04,0-19.46,0-38.93,0-58.39,0-.37.02-.76-.05-1.12-.25-1.37-1.08-2.21-2.47-2.32-1.4-.11-2.37.6-2.76,1.94-.18.6-.18,1.26-.18,1.9,0,19.2,0,38.39,0,57.59v1.44h5.47Zm32.81-16.4c.03-.46.08-.87.08-1.29,0-13.85,0-27.71,0-41.56,0-.53-.04-1.07-.16-1.59-.31-1.31-1.22-2.01-2.53-2.03-1.39-.02-2.34.7-2.64,2.09-.14.67-.16,1.38-.16,2.07,0,13.53,0,27.06,0,40.6,0,.57,0,1.13,0,1.71h5.41Zm-27.34,2.16c1.32-2.74,3.53-1.91,5.48-2.19v-1c0-14.01,0-28.01,0-42.02,0-.32,0-.64-.04-.96-.17-1.43-1.14-2.42-2.49-2.47-1.48-.05-2.45.67-2.78,2.12-.14.61-.16,1.27-.16,1.9,0,10.64,0,21.27,0,31.91,0,4.05,0,8.1,0,12.7Zm10.96-2.19h5.43c.02-.32.05-.57.05-.83,0-14.07,0-28.14,0-42.2,0-.43-.01-.86-.1-1.28-.28-1.31-1.14-2.05-2.45-2.13-1.32-.08-2.29.56-2.68,1.83-.21.7-.23,1.47-.23,2.22-.01,13.59,0,27.17,0,40.76v1.64Zm-5.5-58.82c0-1.39.05-2.78-.01-4.16-.07-1.5-1.09-2.54-2.47-2.68-1.31-.13-2.74.81-2.82,2.26-.16,3.03-.16,6.07,0,9.1.07,1.46,1.48,2.41,2.8,2.29,1.38-.12,2.42-1.16,2.49-2.65.07-1.38.01-2.77.02-4.16Zm10.97.02s0,0,.01,0c0-1.28,0-2.56,0-3.84,0-.11-.01-.21-.02-.32-.16-1.6-1.19-2.66-2.62-2.71-1.32-.05-2.62.93-2.7,2.41-.14,2.92-.15,5.86-.02,8.78.07,1.56,1.44,2.58,2.81,2.47,1.44-.11,2.45-1.17,2.53-2.8.07-1.33.01-2.67.01-4Zm-16.47,130.11c-2.77,0-5.39-.03-8,.01-1.61.03-2.71,1.04-2.85,2.47-.14,1.37.89,2.8,2.41,2.88,2.8.14,5.62.04,8.44.04v-5.41Zm-.05-27.44v-5.48c-2.65,0-5.21-.05-7.76.02-1.9.05-3.1,1.23-3.06,2.8.04,1.59,1.22,2.62,3.19,2.66,2.51.05,5.02.01,7.63.01Zm0,10.98v-5.48c-2.65,0-5.21-.04-7.77.01-1.86.04-2.99,1.08-3.05,2.62-.06,1.55,1.15,2.77,3.03,2.82,2.55.07,5.11.02,7.79.02Zm.04,5.51c-2.83,0-5.5-.05-8.17.02-1.53.04-2.55,1.07-2.68,2.46-.12,1.33.81,2.72,2.28,2.8,2.85.16,5.71.05,8.57.05v-5.33Zm93.15,8.82s0,0-.01,0c0-1.06.08-2.14-.02-3.19-.14-1.4-1.03-2.18-2.4-2.35-1.33-.16-2.66.66-2.77,2.05-.19,2.21-.19,4.45-.02,6.66.1,1.38,1.45,2.3,2.72,2.14,1.41-.18,2.37-.95,2.49-2.45.08-.95.01-1.91.01-2.87Zm-10.93-65.78c0-.96.05-1.92-.01-2.87-.09-1.47-1.12-2.54-2.49-2.66-1.26-.11-2.65.76-2.76,2.12-.18,2.21-.2,4.46,0,6.67.13,1.43,1.28,2.15,2.76,2.08,1.39-.06,2.39-1.12,2.49-2.62.06-.9.01-1.81,0-2.71Zm10.94-16.38c0-1.01.06-2.03-.01-3.03-.12-1.52-1.15-2.53-2.57-2.53-1.46,0-2.56.73-2.68,2.19-.17,2.11-.18,4.25-.03,6.36.11,1.48,1.42,2.41,2.76,2.33,1.39-.08,2.41-1.1,2.53-2.6.07-.9.01-1.81,0-2.71Zm-.03,16.39c0-1.06.08-2.13-.02-3.19-.13-1.42-1.09-2.21-2.42-2.32-1.35-.12-2.59.53-2.72,1.91-.21,2.31-.21,4.66,0,6.97.12,1.37,1.3,2.04,2.69,1.94,1.39-.09,2.28-.89,2.45-2.29.12-1,.02-2.02.03-3.03Zm-10.93-16.59s0,0,0,0c0-.96.07-1.92-.02-2.87-.13-1.47-1-2.35-2.45-2.48-1.39-.13-2.59.54-2.72,1.9-.22,2.31-.21,4.66-.02,6.97.12,1.38,1.34,2.06,2.69,1.96,1.42-.11,2.36-.96,2.49-2.45.08-1,.02-2.02.02-3.03Zm0-16.35h0c0-1.01.08-2.03-.02-3.03-.13-1.38-.95-2.24-2.35-2.39-1.47-.15-2.69.51-2.83,1.95-.22,2.25-.21,4.56-.02,6.82.11,1.36,1.54,2.26,2.79,2.05,1.4-.23,2.33-1.03,2.43-2.53.06-.95.01-1.92.01-2.87Zm0,82.08s0,0,0,0c0-.96.06-1.92-.01-2.87-.11-1.43-1.11-2.39-2.46-2.47-1.48-.08-2.64.62-2.77,2.06-.2,2.21-.19,4.46-.01,6.67.11,1.37,1.49,2.25,2.75,2.14,1.37-.12,2.41-1.19,2.5-2.65.06-.95.01-1.92.01-2.87Zm0,16.56s0,0,.01,0c0-.96.05-1.92-.01-2.87-.09-1.49-1.12-2.56-2.51-2.61-1.47-.05-2.62.67-2.75,2.11-.19,2.21-.18,4.46.01,6.67.12,1.37,1.51,2.26,2.78,2.08,1.42-.2,2.34-1.02,2.45-2.5.07-.95.01-1.91.01-2.87Zm0-49.19h-.01c0-1.06.07-2.14-.02-3.19-.13-1.5-1.12-2.33-2.53-2.41-1.33-.08-2.55.59-2.67,1.99-.19,2.26-.22,4.56,0,6.82.13,1.44,1.32,2.13,2.8,2,1.48-.13,2.3-1.04,2.42-2.5.08-.9.01-1.81.01-2.71Zm10.92-49.4c0-1.06.09-2.14-.02-3.19-.15-1.4-1.03-2.19-2.43-2.29-1.39-.1-2.58.55-2.7,1.91-.21,2.31-.2,4.66,0,6.97.12,1.39,1.37,2.04,2.7,1.94,1.32-.1,2.3-.88,2.44-2.31.1-1,.02-2.02.02-3.03Zm.03,65.64c0-.96.06-1.92-.01-2.87-.11-1.47-.93-2.34-2.41-2.5-1.44-.16-2.7.65-2.83,2.16-.18,2.16-.16,4.35,0,6.51.11,1.47,1.26,2.16,2.7,2.14,1.4-.02,2.42-1.05,2.54-2.56.07-.95.01-1.91,0-2.87Zm-.01,16.57s0,0-.01,0c0-1.06.08-2.14-.02-3.19-.14-1.4-1.01-2.21-2.41-2.32-1.47-.11-2.64.58-2.77,2.03-.2,2.21-.18,4.45-.02,6.66.1,1.37,1.48,2.32,2.72,2.14,1.39-.2,2.38-.95,2.49-2.46.07-.95.01-1.91.01-2.87Zm-.02-32.92c0-1.06.08-2.14-.02-3.19-.13-1.43-1.11-2.2-2.44-2.3-1.33-.1-2.58.53-2.7,1.93-.19,2.31-.2,4.66,0,6.97.12,1.37,1.31,2.01,2.7,1.91,1.4-.1,2.28-.9,2.43-2.29.11-1,.02-2.02.02-3.03Zm-10.93,16.49s0,0,0,0c0-1.06.09-2.14-.02-3.19-.15-1.38-1.01-2.21-2.41-2.33-1.38-.11-2.6.5-2.73,1.86-.22,2.31-.22,4.66-.03,6.97.11,1.38,1.3,2,2.67,1.97,1.35-.03,2.39-1.02,2.51-2.42.08-.95.02-1.91.02-2.87Z"/>
  <path class="cls-1" d="m39.47,131.09c0-.96-.08-1.92.02-2.87.15-1.41,1.07-2.21,2.43-2.33,1.35-.12,2.6.51,2.72,1.89.22,2.31.23,4.66.02,6.97-.13,1.44-1.37,2.09-2.84,1.93-1.41-.15-2.22-1.02-2.34-2.39-.1-1.06-.02-2.13-.02-3.19,0,0,0,0,.01,0Z"/>
  <path class="cls-1" d="m39.46,164.21c0-1.01-.08-2.03.02-3.03.13-1.38.95-2.24,2.35-2.39,1.47-.16,2.7.5,2.83,1.94.22,2.31.19,4.66-.02,6.97-.13,1.38-1.39,2.01-2.73,1.89-1.34-.12-2.28-.93-2.42-2.34-.1-1-.02-2.02-.02-3.03,0,0,0,0,0,0Z"/>
  <path class="cls-1" d="m28.53,131.2c0-1.01-.08-2.03.02-3.03.14-1.42,1.12-2.19,2.45-2.28,1.34-.09,2.57.55,2.69,1.94.19,2.31.2,4.66-.01,6.97-.13,1.37-1.32,2-2.71,1.89-1.4-.11-2.28-.91-2.42-2.3-.11-1.05-.02-2.13-.02-3.19h0Z"/>
  <path class="cls-1" d="m28.52,147.69c0-1.01-.08-2.03.02-3.03.14-1.4,1.01-2.21,2.41-2.32,1.46-.11,2.64.56,2.77,2.02.19,2.21.19,4.45.02,6.66-.11,1.47-1.28,2.18-2.72,2.1-1.45-.08-2.37-.93-2.49-2.41-.08-1-.02-2.02-.02-3.03,0,0,0,0,.01,0Z"/>
  <path class="cls-1" d="m28.51,164.11c0-.96-.06-1.92.01-2.87.12-1.47.97-2.35,2.45-2.46,1.47-.11,2.63.59,2.76,2.05.19,2.21.18,4.45,0,6.66-.11,1.37-1.48,2.3-2.73,2.12-1.4-.2-2.37-.96-2.48-2.47-.07-1.01-.01-2.02-.02-3.03Z"/>
  <path class="cls-1" d="m39.45,147.72c0-.96-.06-1.92.01-2.87.12-1.46.93-2.34,2.41-2.51,1.43-.16,2.73.65,2.86,2.14.18,2.16.18,4.36,0,6.51-.12,1.44-1.26,2.17-2.71,2.15-1.41-.02-2.45-1.06-2.55-2.55-.07-.95-.01-1.91-.01-2.87Z"/>
</svg>