<?xml version="1.0" encoding="UTF-8"?>
<svg id="Layer_1" data-name="Layer 1" xmlns="http://www.w3.org/2000/svg" viewBox="0 0 199.83 199.83">
  <defs>
    <style>
      .cls-1 {
        fill: #fff;
      }

      .cls-2 {
        fill: #e68344;
      }

      .cls-3 {
        fill: none;
        stroke: #e68344;
        stroke-miterlimit: 10;
        stroke-width: .5px;
      }
    </style>
  </defs>
  <g id="XdhFMW">
    <g>
      <path class="cls-2" d="m144.73,122.27c0,2.04-.51,3.68-2.39,4.72-2.74,1.54-6.09.05-6.65-3.03-.21-.97-.15-2-.15-2.99,0-6.26.02-12.5,0-18.76-.05-4.05-.75-7.95-2.84-11.49-2.99-5.04-7.4-8-13.24-8.79-.58-.07-1.23.12-2.09-.77,3.15-2.19,5.97-4.43,8.33-7.33,9.92,3.57,15.76,10.46,18.19,20.38.43,1.69.7,3.45.75,5.18.09,7.63.02,15.25.09,22.88Z"/>
      <path class="cls-2" d="m98.34,26.52c-13.69.15-25.01,11.66-24.9,25.28.12,14.02,11.35,25.28,25.26,25.33,14.03.06,25.58-11.52,25.44-25.51-.15-14.06-11.68-25.26-25.8-25.1Z"/>
      <path class="cls-2" d="m81.7,81.55c-2.17.27-3.88.32-5.49.72-8.43,2.07-13.92,9.22-14.05,18.43-.14,7.11-.09,14.23-.05,21.34,0,1.83-.29,3.45-1.92,4.62-2.29,1.61-4,1.28-6.91-1.45-.12-.63-.39-1.35-.39-2.09.03-8.74-.72-17.51.36-26.18,1.38-11.01,7.4-18.83,17.9-22.88.48-.17.98-.22,1.57-.36,2.6,2.82,5.49,5.28,8.98,7.85Z"/>
      <path class="cls-2" d="m107.21,113.46c-1.84,1.19-3.48,2.73-5.2,4.12-.9.74-1.85,1.4-3.25,1.53-1.31-.19-2.31-.78-3.22-1.53-2.18-1.83-4.35-3.68-6.56-5.49-1.42-1.16-2.08-2.57-1.81-4.44,1.17-7.48,2.31-14.98,3.48-22.71,2.59.4,5.04.79,7.7,1.21-1.04,6.91-2.05,13.67-3.03,20.39.19.97,1.03,1.34,1.63,1.92.51.49,1.14.91,1.72,1.39,1.39-.52,2.25-1.6,3.61-2.64-.94-6.83-1.89-13.8-2.86-20.85,2.43-.9,4.94-.43,7.28-1.4,1.21,2.51,1.04,5.2,1.5,7.73.79,4.46,1.21,8.99,1.99,13.47.53,3.14-.19,5.52-2.99,7.31Z"/>
      <path class="cls-2" d="m162.5,124.28c-.78-.05-1.91-.21-3.03-.21-38.73-.01-77.47-.01-116.21.02-5.16,0-6.38,1.2-6.38,6.37-.05,10.75-.05,21.5-.05,32.25,0,.99-.02,2,.12,2.99.31,2.65,1.67,3.97,4.36,4.22,1.14.13,2.25.06,3.37.06,16.14,0,32.25.01,48.36,0,22.14,0,44.23,0,66.35-.02,4.61-.01,6-1.42,6-6.05.03-11.37-.01-22.73.03-34.11.02-2.32-.49-4.2-2.92-5.53Z"/>
    </g>
  </g>
  <rect class="cls-1" x="103.43" y="152.33" width="21.96" height="8.77" rx=".92" ry=".92"/>
  <rect class="cls-1" x="130.5" y="152.33" width="21.96" height="8.77" rx=".92" ry=".92"/>
  <rect class="cls-1" x="50.33" y="152.33" width="21.96" height="8.77" rx=".92" ry=".92"/>
  <path class="cls-1" d="m92.64,149.15c1.13.88,1.73,1.96,1.45,3.44-.27,1.44-1.01,2.47-2.48,2.7-2.81.45-5.64.36-8.44.06-1.57-.16-2.59-1.38-2.74-2.84-.15-1.42.34-2.6,1.62-3.34.48-.29,1-.48,1.65-.78v-6.47c-.21-.54-.91-.41-1.37-.69-1.47-.91-2.17-2.31-1.85-3.76.36-1.52,1.52-2.65,3.22-2.73,2.34-.11,4.7-.09,7.06,0,1.82.08,2.9,1.03,3.29,2.57.42,1.66-.22,3.05-1.9,3.99-.38.22-.84.32-1.34.51v6.29c.53.79,1.32.63,1.83,1.04Z"/>
  <line class="cls-3" x1="50.33" y1="158.58" x2="152.45" y2="158.58"/>
  <rect class="cls-1" x="76.88" y="157.43" width="21.96" height="3.66" rx=".92" ry=".92"/>
</svg>