<?xml version="1.0" encoding="UTF-8"?>
<svg id="Layer_1" data-name="Layer 1" xmlns="http://www.w3.org/2000/svg" viewBox="0 0 199.83 199.83">
  <defs>
    <style>
      .cls-1 {
        fill: #e68344;
      }
    </style>
  </defs>
  <path class="cls-1" d="m105.35,63.76c-3.81-23.5-26.42-39.37-49.83-35.05-20.42,3.77-35.18,21.65-35,42.43,0,.35,0,.7,0,1.05.11,5.45,1.2,10.63,3.64,15.58,3.82,7.77,7.4,15.66,11.09,23.5,6.15,13.09,12.29,26.18,18.48,39.26,2.39,5.05,8.15,7.23,13.38,5.23,3.37-1.28,5.15-3.93,6.61-7.04,8.6-18.46,17.28-36.89,25.91-55.34,1.62-3.48,3.41-6.91,4.64-10.53,2.12-6.21,2.12-12.67,1.08-19.09Zm-42.61,28.51c-12.08-.41-21.28-10.27-20.87-22.38.39-11.54,10.46-20.89,22.05-20.46,11.77.43,21.05,10.33,20.67,22.05-.39,11.75-10.3,21.17-21.85,20.79Z"/>
  <path class="cls-1" d="m175.55,26.3c-13.42,28.56-26.8,57.02-40.22,85.58,14.53,5.17,28.99,10.32,43.55,15.5v25.99c-15.45-5.48-30.89-11-46.34-16.5-2.52-.9-5.06-1.78-7.68-2.71-8.43,17.95-16.84,35.83-25.29,53.8h-27.06c4.3-9.18,8.61-18.35,12.92-27.52,11.18-23.77,22.36-47.54,33.54-71.31,10.65-22.64,21.29-45.29,31.93-67.92h27.98v10.09c-.83-1.79-1.85-3.48-3.33-5Z"/>
</svg>